<svg xmlns="http://www.w3.org/2000/svg" viewBox="0 0 1124.01 362.22"><path d="M773.69,140.43a30.34,30.34,0,0,0,3.15-2.86c2.17-2.75,5.11-3.51,8.38-3.51h19.9c.26-1.48.59-3.18.86-4.88a49.7,49.7,0,0,1,5.34-16.06c1.69-3.12,3.47-4,6.4-3.46,2.28.43,3.39,1.51,3.33,3.85a34.45,34.45,0,0,1-.86,5.57c-1.15,5.79-2.4,11.57-3.48,17.38a8.11,8.11,0,0,0,.63,4.56c2.31-3.82,4.64-7.64,6.93-11.48,2.2-3.68,4.16-7.52,6.58-11a60.17,60.17,0,0,1,7.24-8.68c3.9-3.85,9.39-2.49,11.09,2.74,1.09,3.31,1.51,6.84,2.3,10.57,1.47.23,2.58-1.09,3.69-2.16,3.44-3.32,6.68-6.86,10.22-10.08a19.69,19.69,0,0,1,5.93-3.84c3.54-1.38,6.79.45,7.37,4.2a54.41,54.41,0,0,1,.59,10.89c-.46,9.42-1.36,18.82-1.78,28.24a70.16,70.16,0,0,0,.83,10.89,12.2,12.2,0,0,0,1.13,3.59c1.9,4.29,4.74,5.15,8.31,2.09a47.23,47.23,0,0,0,7.72-8.27c4.65-6.58,8.9-13.45,13.37-20.16.68-1,1.5-2.34,2.52-2.65,2.06-.63,2.56-2.22,3.27-3.78,2.46-5.41,4.87-10.85,9.3-15a11.57,11.57,0,0,1,3.44-2.21c2.22-.92,3.75-.4,4.94,1.35a4.21,4.21,0,0,1,0,5.26c-.91,1.19-1.93,2.28-3.11,3.67.86,1.09,1.57,2.09,2.38,3a21.64,21.64,0,0,1,5.62,13,53.91,53.91,0,0,1-4.07,25.53,24.36,24.36,0,0,1-9.24,11.24c-3.32,2.15-7,3.28-10.64.93a13.59,13.59,0,0,1-4-3.89,16.63,16.63,0,0,1-2.56-9.35v-7.5c-1.72.69-2.19,2-2.91,3.11a50.76,50.76,0,0,1-12.9,13.16,15.6,15.6,0,0,1-11.46,2.85,10.21,10.21,0,0,1-8.24-6.47,41.08,41.08,0,0,1-3.63-15.34A150.94,150.94,0,0,1,869.5,126a72.19,72.19,0,0,0,.45-7.78,27.56,27.56,0,0,0-2.4,1.77c-3.29,3.12-6.51,6.33-9.86,9.39a12.69,12.69,0,0,1-3.83,2.34c-4,1.55-7.72,0-9.26-4-1.17-3-1.87-6.18-2.85-9.51-2.11,1-3.34,2.9-4.44,4.79-2.43,4.13-4.63,8.39-7,12.56-3,5.26-6,10.53-9.08,15.7a17,17,0,0,1-3.49,4c-3,2.63-8.9,2.06-10.54-2.23a54,54,0,0,1-2-6.84c-.37-1.56-.48-3.17-.7-4.73-5.28-.2-10.29-.35-15.3-.61s-8.53,2.07-11,6.41c-3.31,5.8-5.45,11.87-5.4,18.64a21.65,21.65,0,0,1-.47,4.88c-.55,2.44-1.88,3.3-4.31,3.43a2.83,2.83,0,0,1-3.28-2.41,17.4,17.4,0,0,1-.47-3.73c0-4.91.12-9.82.16-14.73a7.92,7.92,0,0,0-.38-1.57l-5.4,4.29a25.85,25.85,0,0,1-10.79,5.22c-6.46,1.39-11.64-.77-15.85-5.58a24.27,24.27,0,0,1-6.28-14.59c-2.15,1.17-2.66,3.18-3.63,4.8-3,5.07-6,10.2-9.09,15.24a6.43,6.43,0,0,1-6,3.21c-5.35-.15-7.47-2.18-7.88-7.54-.67-8.56,1.5-16.48,5.18-24.1.69-1.43,1.34-2.88,2.34-5.06-22,.15-42.55,5-63.44,9-.76,5-1.5,9.86-2.22,14.7q-3.32,22.2-6.62,44.41c-1.15,7.85-2.36,15.68-3.21,23.56-.27,2.54.56,5.18.84,7.78.42,4,1.38,8,1.07,11.94a140.41,140.41,0,0,1-2.87,17.45,16.42,16.42,0,0,1-2.56,5.42c-1.39,2.1-3.32,2.75-5.21,2.09a4.84,4.84,0,0,1-3.53-4.48,82.47,82.47,0,0,1,.06-8.32c.5-9.68,1-19.35,1.66-29a8.73,8.73,0,0,0-3-7.36c-7.86-7.49-17.38-11.54-27.83-13.53a73.63,73.63,0,0,0-21.79-1c-4.86.52-9.84,0-14.76.14-5.77.17-11.53.56-17.41.87a21.45,21.45,0,0,0-.81,3.17c-1.09,11.27-2.25,22.53-3.15,33.81-.73,9.15-1.12,18.33-1.69,27.5-.39,6.27-.88,12.54-1.24,18.82a2.76,2.76,0,0,1-2.37,2.94c-1.84.32-4,.91-5.24-1a8.49,8.49,0,0,1-1.66-4.47c.08-8.69.43-17.38.63-26.07.14-5.92.4-11.86.25-17.78-.2-8,1.2-15.8,1.84-23.69.34-4.25.41-8.52.59-12.62-5-2.14-6.69-4.15-6-7.35a19.07,19.07,0,0,1,2.21-5.56,33,33,0,0,1,3.73-4.75,9.25,9.25,0,0,0,2.31-5.81c.42-6.52,1.11-13,1.64-19.54.2-2.51.18-5,.38-7.54,1.24-15.54,2.72-31.06,5.16-46.48,3.24-20.5,6.14-41.06,9.49-61.55,1.93-11.79,4.45-23.49,6.74-35.23a5.15,5.15,0,0,1,4.45-3.91c1.64,0,3.28,1.43,3.71,3.73a26.71,26.71,0,0,1,.33,5.93,79.56,79.56,0,0,1-.73,9.4c-2.48,15.53-5.24,31-7.58,46.56C547,82,545.5,94.09,544.07,106.21c-1.69,14.36-3.16,28.74-4.74,43.12-.67,6.12-1.38,12.23-2,18.35-.12,1.11,0,2.25,0,4,2.68-1.53,5-2.74,7.17-4.1a290.45,290.45,0,0,1,88.07-36.19,6.57,6.57,0,0,0,.85-.47c.56-3.43,1.1-7.26,1.82-11,2.16-11.25,4.28-22.5,6.6-33.72,4.75-22.94,10-45.76,16.7-68.23,1.39-4.71,3-9.36,4.69-14,1.5-4.16,3.09-4.76,7.68-3.13a20.49,20.49,0,0,1-.22,9.59c-3.3,12.54-6.81,25-9.7,37.68-4.54,19.88-8.7,39.86-12.9,59.82-1.26,6-2.13,12.14-3.14,18.22a11.41,11.41,0,0,0,.09,2.16c5.51-1,10.77-2.07,16-3,8.91-1.63,17.79-3.51,26.75-4.75,7.59-1,15.29-1.92,22.41.68,2.19-2,4.13-3.79,6-5.59a17.76,17.76,0,0,1,9.19-4.94c5.93-1,10.67,1.06,14.2,5.82a11,11,0,0,1,1.8,4.11c.42,1.86-.52,2.72-2.46,2.85a5.58,5.58,0,0,1-4.69-2c-3.19-3.52-6.74-3.91-10.93-.33a19.28,19.28,0,0,0-2.71,2.63c-6,7.51-10.46,15.74-12.07,25.32a5.23,5.23,0,0,0,.53,3.13c1.76-2.85,3.57-5.67,5.26-8.56,3.12-5.33,6.15-10.71,9.27-16a16.71,16.71,0,0,1,2.26-3,3.78,3.78,0,0,1,6.27,1,15.86,15.86,0,0,1,1,4.75c.38,4,.25,8.1,1,12a20.05,20.05,0,0,0,3.52,7.8c3,4,6.46,4.62,11.1,2.84,4.23-1.63,7.41-4.73,10.59-7.78a39.29,39.29,0,0,0,3.21-3.72,9.53,9.53,0,0,0,2-5.5c.46-5.12,1.29-10.21,2.19-15.28.3-1.69,1-3.37,3.34-3.51,3.31-.2,4.88,1.2,4.7,4.75C774.57,127.76,774.13,133.64,773.69,140.43ZM622.38,208.2c3.08-22.9,6.11-45.47,9.21-68.47a38.08,38.08,0,0,0-4.51.68c-6,1.66-11.94,3.19-17.78,5.16a296.3,296.3,0,0,0-49.78,21.84c-6.81,3.8-13.34,8.13-19.91,12.36a7.57,7.57,0,0,0-3.15,3.57c-1.09,3.47-1,7.13-.76,11a12.48,12.48,0,0,0,2,0c9.45-1.84,19.07-1.32,28.6-1.86,9.33-.54,18.61.63,27.8,2.23a53.51,53.51,0,0,1,25.76,11.92A21,21,0,0,0,622.38,208.2ZM925,133.09c-1.84,5.34-3.67,10.13-5.13,15A101.74,101.74,0,0,0,917,160.54c-.48,2.9-.45,5.94,1.32,8.61C927.34,164.54,932,141.25,925,133.09Z"/><path d="M162,26.93c-2,1.37-3.64,2.11-4.7,3.36a87,87,0,0,0-8,10.46,355.67,355.67,0,0,0-31.95,68.35c-6.49,18.68-12.81,37.43-19.59,56-2.27,6.23-5.59,12.1-8.71,18a16,16,0,0,1-4.46,5c-3.36,2.52-6.9,1.56-8.81-2.2a38.48,38.48,0,0,1-3.9-16.8,270.81,270.81,0,0,1,1.42-33.2c.85-8.5,1.31-17.06,1.8-25.6.15-2.58-.2-5.19-.32-7.92-1.94,0-2.46,1.25-3.16,2.21-5.34,7.28-9.21,15.35-12.54,23.66-7.76,19.34-13.19,39.4-18.21,59.59C36.83,204,32.41,220,28,236A107.42,107.42,0,0,1,23.3,248.4a20.55,20.55,0,0,1-2.94,4.82A6.32,6.32,0,0,1,10,253a34.45,34.45,0,0,1-5.4-14A221.55,221.55,0,0,1,1.5,217C.65,206.72.05,196.39,0,186.08c0-8.53.88-17.07,1.34-25.61.14-2.65.2-5.3.29-7.94.73-21.81,4-43.31,7.76-64.76,2.61-15,5.45-30,9.63-44.66A132.2,132.2,0,0,1,25,27.21c1.57-3.65,3.33-4.45,5.7-3.55,1.92.73,2.66,2.72,1.76,6.3C31,35.45,29.29,40.85,27.87,46.34A435.67,435.67,0,0,0,17.39,100c-1.91,14.84-3.73,29.69-5.19,44.58-.95,9.76-1.35,19.58-1.68,29.39-.37,10.83-.76,21.69-.45,32.52.37,13.19,1.16,26.4,4.93,39.67.66-.52,1.47-.88,1.77-1.48a38.46,38.46,0,0,0,2-4.87c5.55-15.7,9.65-31.82,13.72-47.95,5.07-20,10.4-40,17.52-59.42A176.41,176.41,0,0,1,64.86,101.9a17.81,17.81,0,0,1,2.6-3.7c1.44-1.36,3.05-3.08,4.83-3.44,5-1,7.85-.61,9.1,5a53.38,53.38,0,0,1,1.25,10.46c.22,10.84-.52,21.63-1.32,32.44-.7,9.28-1.85,18.58-.9,27.93.3,2.87.64,5.74,1,8.86,2.21-.74,2.9-2.69,3.6-4.44,2.79-6.89,5.63-13.76,8.14-20.75,6.14-17.07,12-34.26,18.2-51.3a413.19,413.19,0,0,1,22.39-50.82c4.78-9.05,9.73-18,16.36-25.81a36.54,36.54,0,0,1,5.66-5.53c5.72-4.33,11.95-2.73,14.23,4a47.83,47.83,0,0,1,2.51,13.65c.37,12.11-1.22,24.11-3.11,36.05-1.75,11.06-3.36,22.14-5,33.21-2.12,14.18-4.28,28.36-6.35,42.55-2,13.56-4.16,27.11-5.73,40.72-1.64,14.24-2.59,28.55-4,42.82-1.06,11-2.56,22-3.39,33-.55,7.41-.27,14.89-.36,22.33,0,1.64.09,3.29,0,4.92a10.1,10.1,0,0,1-.79,3.64c-1.11,2.27-3.24,2.54-4.85.59a7,7,0,0,1-1.71-3.67c-.25-4.75-.37-9.52-.22-14.27.18-5.91.63-11.82,1-17.72.63-9.28,1.36-18.56,2-27.84.41-6,.65-12.06,1.06-18.09.61-8.91,1.06-17.83,2-26.7,1.94-17.88,3.94-35.75,6.37-53.56,2.24-16.45,5.16-32.81,7.6-49.23,1.89-12.69,3.58-25.4,5.17-38.13A118,118,0,0,0,163,35.52,76.8,76.8,0,0,0,162,26.93Z"/><path d="M310.87,167.15C306,158.67,298,153.9,291.39,147.26c-1.73,2.07-3.2,3.93-4.79,5.71-5.62,6.29-11.05,12.79-18,17.77-3.37,2.43-6.9,4.57-11.16,5.24a13.09,13.09,0,0,1-10-2.31c-5.79-4-8.13-10.07-9.61-16.59-.41-1.8-.65-3.64-1.08-6.09-2.33,1.81-4.3,3.29-6.22,4.84a26,26,0,0,1-11.08,5.45c-6.44,1.39-11.63-.73-15.82-5.56-3.55-4.09-6-8.69-6.18-14.87a12.56,12.56,0,0,0-2,2c-1.85,3.29-3.5,6.7-5.42,10a98.55,98.55,0,0,1-5.61,8.52,7.87,7.87,0,0,1-10.44,2,6.12,6.12,0,0,1-2.7-3.78c-.38-4.09-.87-8.36-.1-12.32,2.33-12,7.44-22.71,16.35-31.34a18.1,18.1,0,0,1,9.09-5.13c5.9-1.17,10.7.78,14.39,5.39,1.51,1.89,2.62,4,1.53,6.81a5.41,5.41,0,0,1-6.44-1.28,13.19,13.19,0,0,0-2-1.79c-2.28-1.54-4.77-1.88-7.07-.25a25.24,25.24,0,0,0-5.34,4.74c-5.25,6.71-9.43,14-11.15,22.49a29.52,29.52,0,0,0-.41,3.37c0,.44.11.88.81,1.55,1.61-2.64,3.28-5.24,4.81-7.91,2.51-4.38,4.88-8.83,7.41-13.19,1.07-1.85,2.41-3.54,3.59-5.33a3.87,3.87,0,0,1,4.52-1.85c2,.51,2.85,2,3.07,3.87.36,3.12.48,6.27.78,9.39.23,2.37.56,4.74.88,7.1a6.29,6.29,0,0,0,.44,1.44c3.2,8.12,9,11,17,6,5.34-3.32,9.32-8,13-13,.46-.63.36-1.67.51-2.53.78-4.33,1.37-8.71,2.43-13a20.68,20.68,0,0,1,3-6.44c1.52-2.23,3.14-2.47,5.65-1.58,2.18.78,2.77,1.31,2.44,4.39-.61,5.49-1.62,10.94-2.45,16.4-1.26,8.28-1.65,16.52,1.11,24.62.12.36.23.72.38,1.07,3.6,8.36,6.32,7.45,11.74,4.56,6.45-3.45,11.47-8.56,16.14-14,3.19-3.73,6.36-7.49,9.32-11.41a10.59,10.59,0,0,0,1.62-4.46c1.48-8,6-13.71,13.25-17.28a12.53,12.53,0,0,1,3.94-1.22c3.81-.45,6,1.83,5.61,5.61-.16,1.69-.82,2.88-2.62,3.14-5.23.75-7.38,4.91-9.49,8.9a5.32,5.32,0,0,0,.23,4.25,14.61,14.61,0,0,0,3.81,4.61c5.81,4.63,11.91,8.92,16,15.89,2.56-1.94,4.79-3.72,7.11-5.38,8.71-6.23,17.41-12.48,26.23-18.56a13.49,13.49,0,0,1,5.6-2,3.63,3.63,0,0,0,3-2.32c2-3.8,3.91-7.63,6.17-11.25a12.42,12.42,0,0,1,6.09-5.47c2.31-.84,3.78-.5,5,1.17a4.3,4.3,0,0,1,0,5.57c-.92,1.17-1.92,2.28-3,3.57.83,1.06,1.47,2,2.22,2.81a22.89,22.89,0,0,1,5.88,15.15,57.71,57.71,0,0,1-3.26,21.17,27.43,27.43,0,0,1-8.44,12.33c-7.47,6.18-15.47,3.7-18-5.66-1.66-6.1-1.16-12.25.28-18.33.84-3.54,1.81-7,2.86-11.06a7.41,7.41,0,0,0-1.45.56c-9.47,6.67-19.46,12.63-28.24,20.27-.28.25-.59.47-.9.7-2.81,2.06-3.5,4.31-2.54,8,2.41,9.42,1.25,18.76-2.68,27.68-3.21,7.31-7,14.27-12.87,19.85a22.86,22.86,0,0,1-12.7,6.19A10.7,10.7,0,0,1,283.12,214a35.78,35.78,0,0,1,6-20.68,132.48,132.48,0,0,1,17.63-21.66C308.18,170.23,309.46,168.7,310.87,167.15Zm2.54,7.93c-2.46,2.54-4.43,4.55-6.38,6.58a78.26,78.26,0,0,0-13.76,19.72,22.64,22.64,0,0,0-2.47,12c.22,2.71,1.33,3.65,3.95,3.11a6.14,6.14,0,0,0,3-1.46c2.83-2.83,6.08-5.46,8.12-8.81C311.45,197.09,315,187.23,313.41,175.08Zm57.8-42c-1.85,5.35-3.68,10.14-5.14,15a101.9,101.9,0,0,0-2.91,12.43c-.48,2.89-.45,5.93,1.33,8.59C373.54,164.53,378.15,141.22,371.21,133.09Z"/><path d="M1074.53,141c-.25,3.56-.52,7,1.82,9.89,3.34,4.2,7.56,5.4,13.24,3.72,7.51-2.23,14-6.39,19.85-11.41,2.87-2.44,5.59-5.07,8.28-7.71,1.55-1.53,3.33-1.55,5.4-1.32,1.44,2.18,1.08,4.14-.73,6-7.83,8-16.22,15.15-26.52,19.78a25.76,25.76,0,0,1-14.69,2.45c-5.86-.9-10.09-4.31-13.24-9.19-.34-.53-.65-1.08-1-1.6-.06-.09-.22-.11-.72-.33-1.28,1.47-2.58,3.11-4,4.59-5.3,5.36-10,11.45-16.45,15.52a34.83,34.83,0,0,1-8,4.11c-8.06,2.42-13.78-1.33-17.76-7.91-2-3.26-2.79-7.23-4.07-10.9a33.55,33.55,0,0,1-.79-3.34c-3.53,3.73-6.75,7.43-10.32,10.77a18,18,0,0,1-6.34,3.86c-5.89,2-10.57,0-14-5.19-4.24-6.47-5.31-13.77-5.75-21.24-.13-2.39,0-4.8-.05-7.19,0-1.32-.38-2.63-.74-5a67.81,67.81,0,0,0-4.3,5.74c-3.37,5.76-6.55,11.64-9.92,17.4a70.31,70.31,0,0,1-4.87,7.19,11.74,11.74,0,0,1-3.36,3c-2.93,1.66-6,.86-7.31-2.2a19.33,19.33,0,0,1-1.71-7.26,76.45,76.45,0,0,1,9-37,17.87,17.87,0,0,1,2.65-3.66,4.12,4.12,0,0,1,4.85-1.09c1.82.71,1.76,2.37,1.56,3.86a48.14,48.14,0,0,1-1.37,6.63c-1.58,5.45-3.41,10.82-4.93,16.27a45.78,45.78,0,0,0-1.57,10.16,17,17,0,0,0,1.55-1.76c3.85-5.92,7.51-12,11.55-17.75A40.53,40.53,0,0,1,976.8,121c3.74-3.15,7.42-1.71,8.17,3.14.78,5.08,1,10.26,1.57,15.37q.86,7.29,2.08,14.53a13.2,13.2,0,0,0,1.72,4.16c1.93,3.4,5.08,4.24,8.3,2a24.13,24.13,0,0,0,5.1-5c3.59-4.71,7-9.57,10.37-14.43A7.08,7.08,0,0,0,1015,138c.83-5,1.45-10,2.42-14.87a13.91,13.91,0,0,1,3.59-7.38c1.69-1.71,3.56-1.57,5.59-.82s2.28,2.26,2,4c-.76,5.47-1.55,10.94-2.43,16.4-1.36,8.41-1.75,16.77,1.09,25a21,21,0,0,0,2.29,4.74c2,2.95,3.82,3.48,7.13,2.11a42.78,42.78,0,0,0,11.56-7.73c6.43-5.59,11-12.81,16.62-19.05a5.92,5.92,0,0,0,.93-2.74,35.87,35.87,0,0,1,16.34-24,13.37,13.37,0,0,1,11.93-1.7,5.07,5.07,0,0,1,3.77,5c.3,6.09-2.67,10.74-6.86,14.55C1084.86,137.18,1082.68,138.2,1074.53,141Zm16.06-22.24c-6.77,2.92-10.5,8-14,14.34C1084.52,129.93,1089.92,124.39,1090.59,118.77Z"/><path d="M403.18,148.42c1.72-2.6,3.42-5.2,5.14-7.8,3.26-5,6.42-10,9.83-14.79a40,40,0,0,1,4.74-4.83c2.76-2.76,7.83-1.85,8.33,3.12.51,5.13.91,10.26,1.51,15.38.57,4.85,1.25,9.7,2.07,14.52a13.36,13.36,0,0,0,1.71,4.17c1.92,3.43,5.07,4.31,8.27,2a25.41,25.41,0,0,0,5.33-5.28c3.94-5.23,7.63-10.65,11.48-15.95a25.05,25.05,0,0,1,3.22-3.68,2.72,2.72,0,0,1,3.8-.1,3.63,3.63,0,0,1,.82,3,24.54,24.54,0,0,1-2.58,6.24A92.4,92.4,0,0,1,450.22,165a14.05,14.05,0,0,1-11.15,3.65c-3.52-.32-6-2.4-8-5.2A28.4,28.4,0,0,1,426,150.56c-.61-5.12-.71-10.29-1.07-15.43-.12-1.58-.35-3.15-.52-4.72l-.79-.3a52.31,52.31,0,0,0-3.74,5c-3.38,5.76-6.56,11.63-9.92,17.4a72.31,72.31,0,0,1-4.61,6.92,12.9,12.9,0,0,1-3.27,3.07c-3.11,1.95-6.44,1.07-7.84-2.33a20.41,20.41,0,0,1-1.56-7.3,76.72,76.72,0,0,1,9-36.66,18.54,18.54,0,0,1,2.65-3.66,4.12,4.12,0,0,1,4.84-1.13c1.83.69,1.8,2.34,1.59,3.83a48.53,48.53,0,0,1-1.35,6.64c-1.54,5.32-3.33,10.57-4.82,15.9-.93,3.37-1.5,6.83-2.23,10.25Z"/><path d="M413.19,324.91c1.83-1.58,3.4-3.06,5.09-4.35a15.49,15.49,0,0,1,11-3.39c4.52.35,7.65,2.54,8.83,7a39.12,39.12,0,0,1,1.19,9c.17,6.31,0,12.62.06,18.94,0,5.44.24,5.71,5.51,7.37a2.36,2.36,0,0,1,.58.43c-2.29,1-15.76,1.13-20.23.14.91-.39,1.41-.65,1.93-.82,3.59-1.15,4.46-1.9,4.53-5.52.14-7.7,0-15.4,0-23.1a12.31,12.31,0,0,0-.5-3c-.84-3.23-2.85-4.82-6.22-5.07-4.5-.34-7.66,2.08-10.45,5.15a4,4,0,0,0-.63,2.45q-.06,10.79,0,21.59a19.11,19.11,0,0,0,.38,3,4.88,4.88,0,0,0,4,4.46,2.8,2.8,0,0,1,1.87,1.19h-20l-.17-.4a13.43,13.43,0,0,1,1.75-.85c3.51-1.16,4.18-1.91,4.42-5.66.16-2.39.14-4.79.13-7.19,0-5.05.09-10.11-.17-15.14-.44-8.3-6.26-11.15-13.37-6.72-2.72,1.7-4.36,3.7-4.18,7.32.32,6.67.08,13.38.09,20.07,0,6.24.13,6.39,5.91,8.14-2.3.87-14,1.12-20.78.3a30.29,30.29,0,0,1,3.28-1.14,4.09,4.09,0,0,0,3.53-3.88,6.46,6.46,0,0,0,.11-.75c0-9.21.08-18.42-.08-27.63-.06-3.22-1-3.83-4.23-4.09-.49,0-1-.06-1.48-.11-.06,0-.11-.16-.37-.55l13.47-5c.11,2.47.2,4.53.32,7.35,1.59-1.25,2.71-2.15,3.84-3,3-2.37,6.31-4.11,10.31-4.22,4.37-.11,7.55,1.63,9.5,5.56.17.34.28.71.46,1S412.79,324.34,413.19,324.91Z"/><path d="M304.94,360.35H285.57c.21-.44.28-.8.4-.82,4-.7,5.26-3.23,5.24-7-.07-15.4,0-30.8,0-46.2a12.78,12.78,0,0,0-.11-1.51c-.36-3-.67-3.36-3.67-3.8-.56-.08-1.13-.13-1.69-.2l-.13-.76,13.11-4.1c.55,3.25.24,6.23.29,9.18.05,3.16,0,6.31,0,9.47v9.78l3.3-3a15.39,15.39,0,0,1,11.77-4.21c4.51.29,7.78,2.47,9.13,6.71a33.37,33.37,0,0,1,1.34,8.92c.2,5.67.06,11.36.08,17,0,1.26.11,2.52.12,3.78,0,3,1.24,5.09,4.39,5.7.3.06.54.39,1.42,1.06a99.83,99.83,0,0,1-10.19.22,46.1,46.1,0,0,1-9.57-.63,9.84,9.84,0,0,1,2-1c2.5-.57,3.52-2.28,3.71-4.63.12-1.5.14-3,.14-4.54,0-5.55,0-11.11,0-16.66a23.49,23.49,0,0,0-.34-4.52c-1.1-5.48-4.84-7.65-10.08-5.58a19.49,19.49,0,0,0-5.9,4c-.83.78-1.07,2.48-1.09,3.76-.1,6.69-.06,13.38,0,20.07C299.24,357.25,299.35,357.41,304.94,360.35Z"/><path d="M279.88,348.59c.8.41,1.54,1,.6,2.2-.23.3-.49.57-.74.85-11.49,12.87-34.05,13.68-46.47,1.65-7.3-7.06-9.94-15.9-9.48-25.79a32.13,32.13,0,0,1,5.3-16.75c7.49-11.18,19.41-15.8,33.75-13.53a60.93,60.93,0,0,1,7.7,1.9c2.51.73,4.68.74,6.42-1.62.33-.46,1.2-.53,2.29-1,.29,7.31.57,14.17.84,20.88-1.55.81-2.16.12-2.6-.94-.77-1.86-1.42-3.79-2.35-5.56a20.16,20.16,0,0,0-33.62-3.49,27,27,0,0,0-5.65,11.84,44.86,44.86,0,0,0-.24,18.78c3.26,15.9,18.43,23.89,33.31,17.29C272.68,353.68,276,351,279.88,348.59Z"/><path d="M446.33,300.27l14-4.34v27.81c1.24-1.06,1.93-1.62,2.58-2.23,7.21-6.69,17.24-5.79,23.16,2.08,5.44,7.23,5.65,19.37.42,27.54-5.5,8.61-13.77,11.49-23.94,9.74a34.27,34.27,0,0,1-6.44-2.14c-2.64-1-3.71-2.91-3.67-5.88.15-10.85.06-21.7.06-32.55,0-4.54,0-9.08,0-13.62-.09-5-.38-5.21-5.28-5.68C447.05,301,446.88,300.72,446.33,300.27Zm14,40.87c0,3.65,0,7.31,0,11,0,2.13.74,3.69,2.75,4.49,6.94,2.75,14.88,2,17.91-7.48a26.21,26.21,0,0,0-1.44-19.53c-2.94-6.31-9.48-8.24-15.53-4.76a6.46,6.46,0,0,0-3.68,6.1C460.38,334.33,460.33,337.73,460.33,341.14Z"/><path d="M644.23,361.08c-.1-1.77-.19-3.26-.31-5.16a18.71,18.71,0,0,0-2.18,1.62c-5.18,5.42-16.11,5.15-21.8-1.17-5.35-5.94-6.52-12.92-5.26-20.47a24.27,24.27,0,0,1,6.8-13.26c6.1-6.2,13.79-7.18,21.27-2.72a5.81,5.81,0,0,0,1.13.29c.07-1.35.18-2.65.18-3.95,0-3.66.07-7.31,0-11s-.63-4.12-4.21-4.28c-.57,0-1.14-.09-1.71-.13l-.14-.76L652,296c0,1.4,0,2.38,0,3.36q-.19,24-.38,48c0,.76,0,1.51,0,2.27.13,4.83.56,5.3,5.33,5.78a5.22,5.22,0,0,1,1,.34C656,357.46,650.08,359.76,644.23,361.08Zm-.16-21.61H644c0-3.53.07-7.06,0-10.59a8.55,8.55,0,0,0-4.29-7.53c-5.15-3.13-11-1.59-14.3,3.84-4.41,7.19-3.87,19.46,1.16,26.24a11.58,11.58,0,0,0,12.1,4.32c3-.8,5.74-3.89,5.48-6.83C643.85,345.79,644.07,342.62,644.07,339.47Z"/><path d="M721.33,323.78c1-.93,2-1.9,3-2.79a15.09,15.09,0,0,1,10.77-3.85c5.12.2,8.65,2.68,10.05,7.61a29.07,29.07,0,0,1,1,7.08c.14,5.42.05,10.85.05,16.27,0,1.14,0,2.28,0,3.41-.08,3.93.44,7.47,5.81,8-2.7,1.24-15.23,1.45-19.51.58.09-.2.15-.56.27-.58,4.12-.69,5.54-3.29,5.48-7.23-.1-6.81.05-13.63-.06-20.44a21,21,0,0,0-1-5.54c-.71-2.44-2.54-3.62-5.07-3.84-4.47-.41-7.74,1.84-10.6,4.84a4.42,4.42,0,0,0-.76,2.81c0,7.32,0,14.64,0,22,0,.76.18,1.51.21,2.26a4.47,4.47,0,0,0,4,4.7,11.84,11.84,0,0,1,1.85.73c-2.79,1-15.89,1.13-19.81.24.33-.28.56-.64.83-.67,4-.58,5-3.37,5-6.84,0-15.39,0-30.78,0-46.17,0-4.54-.54-5-5.54-5.65,1.69-1.46,6.84-3.24,13.14-4.49v27.35Z"/><path d="M776.71,317.15c11.09,0,19.4,7.65,20.45,19.12.62,6.81-.78,13-5.13,18.43a20.1,20.1,0,0,1-28.67,2.75c-9.18-7.76-10.89-22.55-3.7-32.19C763.8,319.71,769.35,317,776.71,317.15Zm12,26.29c0-7.41-1.41-13.22-4.7-18.49a10.16,10.16,0,0,0-9.84-5.17,9.42,9.42,0,0,0-8.58,7c-3.24,9.93-1.91,19.37,3.71,28.18a8.84,8.84,0,0,0,1.23,1.43c5.09,5.08,12.51,4,15.77-2.41A22.92,22.92,0,0,0,788.72,343.44Z"/><path d="M372.84,355.11a8.18,8.18,0,0,1-6.92,6.15c-4.65.72-6.67-2-7.58-6.18a35.1,35.1,0,0,1-5,3.38c-2.61,1.16-5.35,2.51-8.12,2.74-7.57.61-12.4-6.28-9.77-13.45a14,14,0,0,1,7.38-7.76c4-1.93,8.07-3.57,12.12-5.33,1-.45,2.07-.87,3.24-1.36,0-2.69.18-5.32,0-7.92a5.55,5.55,0,0,0-4.58-5.33c-3-.71-5.82-.32-8.08,1.86a4.77,4.77,0,0,0-1,2.74,23.86,23.86,0,0,0,.22,3c0,3-1.63,4.76-4.24,4.57a4.38,4.38,0,0,1-3.94-5.06,8.54,8.54,0,0,1,1.15-3.16,13,13,0,0,1,6.84-5.72,22.11,22.11,0,0,1,12.68-.62q7.92,1.88,8.62,10.63c.28,3.51.17,7.06.19,10.59,0,3.79,0,7.58,0,11.36C366.08,356,367.11,356.78,372.84,355.11Zm-14.5-18.95c-4.36,1.29-8,2.74-11,5.27a14.26,14.26,0,0,0-3.58,4.28c-2.1,4.16,0,9.12,4.11,10.07a9.34,9.34,0,0,0,8.77-2.32,5.27,5.27,0,0,0,1.61-3.23C358.45,345.72,358.34,341.19,358.34,336.16Z"/><path d="M562.64,345.08c-2.3,10.65-10.84,16.87-20.8,16.2a14.93,14.93,0,0,1-11.05-5.77c-7.25-9-7-23.5.65-32.19,4.78-5.45,10.9-7.24,17.78-5.78a15,15,0,0,1,12.18,16.12c-3,.88-6.11.3-9.19.4-3.27.1-6.55,0-9.83,0h-9.3c-1.57,6.25,2.32,15.46,7.36,18.43a13.85,13.85,0,0,0,16.19-1.26c1.58-1.42,2.81-3.22,4.25-4.79A14.09,14.09,0,0,1,562.64,345.08Zm-11.18-14.52c.23-6.38-3-10.06-8.65-10.1s-9.74,4.31-9.67,10.1Z"/><path d="M863.44,334.12H834.32c.19,5.27.91,9.95,3.66,14.06a13.76,13.76,0,0,0,21.59,2.13c1.25-1.24,2.21-2.75,3.39-4.07a9.48,9.48,0,0,1,1.83-1.22c.14.71.34,1.09.25,1.39a21,21,0,0,1-21.27,14.87,15,15,0,0,1-11.31-6c-7.08-9.14-6.7-23.2.89-31.91,4.77-5.47,10.9-7.17,17.8-5.79C858.76,319,863.46,325.38,863.44,334.12Zm-9.92-3.57c-.07-6.66-3.45-10.28-9.19-10.08a9.28,9.28,0,0,0-9.13,10.08Z"/><path d="M896.77,318.81c.12,3.61.3,7.65.13,11.68l-1,.16c-.51-1.33-1-2.67-1.54-4-1.51-3.81-4.1-6.31-8.29-6.87-3.38-.45-6.33,1-7.59,3.75s-.55,5.7,2.57,7.9c2.46,1.73,5.26,3,7.84,4.54a46.81,46.81,0,0,1,7.22,4.78c6.73,6.09,4.86,15.85-3.56,19.33-3.74,1.55-7.62,1.5-11.53.82-1.12-.2-2.21-.53-3.31-.8-2.51-.6-2.51-.59-4.89.67-.93-2.51-1.05-10.56-.08-14.82a19.52,19.52,0,0,1,1.41,2.19,48.66,48.66,0,0,0,2.37,5.53,10.66,10.66,0,0,0,12.16,4.65,6.33,6.33,0,0,0,3-10.55,15.51,15.51,0,0,0-3.56-2.76c-2.15-1.31-4.45-2.39-6.59-3.71a39.43,39.43,0,0,1-5.55-3.93,10.76,10.76,0,0,1-3.44-12c1.51-4.88,5.12-7.52,10-8,2.68-.29,5.47.45,8.2.74C892.55,318.3,894.31,318.52,896.77,318.81Z"/><path d="M814.45,321.12v9.66c0,5.68,0,11.35,0,17a17.79,17.79,0,0,0,.37,4.13c1,4,4.4,5.33,7.81,3,.89-.62,1.71-1.33,3.28-2.56a11.39,11.39,0,0,1-.71,2.76c-2.4,3.45-5.41,6-9.86,6.17s-7.25-1.88-8.2-6.22a34.66,34.66,0,0,1-.59-7.14c-.08-7.44,0-14.88,0-22.33v-4.14l-6-.62c2.71-2.74,5.07-4.9,7.16-7.28s4-5.07,6.67-7.41v11.49l9.37.43v3Z"/><path d="M515.68,360.48h-23a15.58,15.58,0,0,1,2.38-1.31c4.15-1.19,4.82-2,4.92-6.35.07-3.15,0-6.31,0-9.47q0-5.49,0-11c0-1.14,0-2.28-.06-3.41-.3-5.18-1.27-6.16-6.24-6.32,1.64-1.47,9.05-4.25,13.87-5.17v7.46c1.1-.91,1.71-1.37,2.27-1.9,1.56-1.46,3-3,4.67-4.4a7.09,7.09,0,0,1,5.73-1.4,4.86,4.86,0,0,1,2.33,8.61c-1.87,1.15-3.58.6-5.27-.57-3.53-2.46-4.76-2.24-7.46,1.07a9.52,9.52,0,0,0-2.1,6.32c0,6.18,0,12.37,0,18.56.05,6,.95,7,6.88,8.4C514.87,359.66,515,359.9,515.68,360.48Z"/><path d="M1025.66,86.07c-.06-3.17.77-6,3.29-8.11s5.19-2,7.17.68a12.46,12.46,0,0,1,2.62,8.86,6.89,6.89,0,0,1-9.57,5.52C1026.24,91.63,1025.56,89,1025.66,86.07Z"/><path d="M247.61,86.19c-.09-3.32.8-6.25,3.48-8.4,2.5-2,5-1.8,6.9.76a12.48,12.48,0,0,1,2.71,8.83,6.89,6.89,0,0,1-9.48,5.68C248.26,91.73,247.51,89.16,247.61,86.19Z"/><path d="M791.07,312.13c-2.34,1-3.58-.06-4.85-1.15-3.13-2.7-6.29-5.36-9.65-8.22-2.31,2-4.41,3.94-6.72,5.63s-3.65,4.72-7.53,4a19.47,19.47,0,0,1,1.18-2.22c2.83-3.86,5.66-7.7,8.55-11.51a5.71,5.71,0,0,1,8.93-.13C784.31,303,787.56,307.41,791.07,312.13Z"/><path d="M676.54,306.74c-1.72,0-3.09.09-4.45,0-2.77-.21-4.56-2-4.67-4.48a5.16,5.16,0,0,1,4.57-5.5,7.22,7.22,0,0,1,8.3,5.93A13.94,13.94,0,0,1,680,309c-1.59,5-5.2,8.29-9.74,10.61-1.29-1.53-.37-2.07.41-2.77a45.92,45.92,0,0,0,4.33-4.15A6.37,6.37,0,0,0,676.54,306.74Z"/></svg>