<svg xmlns="http://www.w3.org/2000/svg" viewBox="0 0 1124.01 362.22"><path d="M542.81,320.46c-5.56,0-9.74,4.31-9.67,10.1h18.32C551.69,324.18,548.47,320.5,542.81,320.46Z" fill="none"/><path d="M347.36,341.43a14.26,14.26,0,0,0-3.58,4.28c-2.1,4.16,0,9.12,4.11,10.07a9.34,9.34,0,0,0,8.77-2.32,5.27,5.27,0,0,0,1.61-3.23c.18-4.51.07-9,.07-14.07C354,337.45,350.38,338.9,347.36,341.43Z" fill="none"/><path d="M366.07,148.12a101.9,101.9,0,0,0-2.91,12.43c-.48,2.89-.45,5.93,1.33,8.59,9.05-4.61,13.66-27.92,6.72-36C369.36,138.44,367.53,143.23,366.07,148.12Z" fill="none"/><path d="M644.07,339.47H644c0-3.53.07-7.06,0-10.59a8.55,8.55,0,0,0-4.29-7.53c-5.15-3.13-11-1.59-14.3,3.84-4.41,7.19-3.87,19.46,1.16,26.24a11.58,11.58,0,0,0,12.1,4.32c3-.8,5.74-3.89,5.48-6.83C643.85,345.79,644.07,342.62,644.07,339.47Z" fill="none"/><path d="M464,324.82a6.46,6.46,0,0,0-3.68,6.1c.06,3.41,0,6.81,0,10.22,0,3.65,0,7.31,0,11,0,2.13.74,3.69,2.75,4.49,6.94,2.75,14.88,2,17.91-7.48a26.21,26.21,0,0,0-1.44-19.53C476.59,323.27,470.05,321.34,464,324.82Z" fill="none"/><path d="M307,181.66a78.26,78.26,0,0,0-13.76,19.72,22.64,22.64,0,0,0-2.47,12c.22,2.71,1.33,3.65,3.95,3.11a6.14,6.14,0,0,0,3-1.46c2.83-2.83,6.08-5.46,8.12-8.81,5.59-9.17,9.16-19,7.55-31.18C311,177.62,309,179.63,307,181.66Z" fill="none"/><path d="M853.52,330.55c-.07-6.66-3.45-10.28-9.19-10.08a9.28,9.28,0,0,0-9.13,10.08Z" fill="none"/><path d="M774.18,319.78a9.42,9.42,0,0,0-8.58,7c-3.24,9.93-1.91,19.37,3.71,28.18a8.84,8.84,0,0,0,1.23,1.43c5.09,5.08,12.51,4,15.77-2.41a22.92,22.92,0,0,0,2.41-10.5c0-7.41-1.41-13.22-4.7-18.49A10.16,10.16,0,0,0,774.18,319.78Z" fill="none"/><path d="M919.88,148.12A101.74,101.74,0,0,0,917,160.54c-.48,2.9-.45,5.94,1.32,8.61,9.05-4.61,13.66-27.9,6.72-36.06C923.17,138.43,921.34,143.22,919.88,148.12Z" fill="none"/><path d="M609.3,145.57a296.3,296.3,0,0,0-49.78,21.84c-6.81,3.8-13.34,8.13-19.91,12.36a7.57,7.57,0,0,0-3.15,3.57c-1.09,3.47-1,7.13-.76,11a12.48,12.48,0,0,0,2,0c9.45-1.84,19.07-1.32,28.6-1.86,9.33-.54,18.61.63,27.8,2.23a53.51,53.51,0,0,1,25.76,11.92,21,21,0,0,0,2.47,1.59c3.08-22.9,6.11-45.47,9.21-68.47a38.08,38.08,0,0,0-4.51.68C621.13,142.07,615.14,143.6,609.3,145.57Z" fill="none"/><path d="M1090.59,118.77c-6.77,2.92-10.5,8-14,14.34C1084.52,129.93,1089.92,124.39,1090.59,118.77Z" fill="none"/><path d="M931.57,128.14c-.81-.91-1.52-1.91-2.38-3,1.18-1.39,2.2-2.48,3.11-3.67a4.21,4.21,0,0,0,0-5.26c-1.19-1.75-2.72-2.27-4.94-1.35a11.57,11.57,0,0,0-3.44,2.21c-4.43,4.16-6.84,9.6-9.3,15-.71,1.56-1.21,3.15-3.27,3.78-1,.31-1.84,1.63-2.52,2.65-4.47,6.71-8.72,13.58-13.37,20.16a47.23,47.23,0,0,1-7.72,8.27c-3.57,3.06-6.41,2.2-8.31-2.09a12.2,12.2,0,0,1-1.13-3.59,70.16,70.16,0,0,1-.83-10.89c.42-9.42,1.32-18.82,1.78-28.24a54.41,54.41,0,0,0-.59-10.89c-.58-3.75-3.83-5.58-7.37-4.2a19.69,19.69,0,0,0-5.93,3.84c-3.54,3.22-6.78,6.76-10.22,10.08-1.11,1.07-2.22,2.39-3.69,2.16-.79-3.73-1.21-7.26-2.3-10.57-1.7-5.23-7.19-6.59-11.09-2.74a60.17,60.17,0,0,0-7.24,8.68c-2.42,3.52-4.38,7.36-6.58,11-2.29,3.84-4.62,7.66-6.93,11.48a8.11,8.11,0,0,1-.63-4.56c1.08-5.81,2.33-11.59,3.48-17.38a34.45,34.45,0,0,0,.86-5.57c.06-2.34-1-3.42-3.33-3.85-2.93-.56-4.71.34-6.4,3.46A49.7,49.7,0,0,0,806,129.17c-.27,1.7-.6,3.4-.86,4.88h-19.9c-3.27,0-6.21.76-8.38,3.51a30.34,30.34,0,0,1-3.15,2.86c.44-6.79.88-12.67,1.18-18.56.18-3.55-1.39-5-4.7-4.75-2.31.14-3,1.82-3.34,3.51-.9,5.07-1.73,10.16-2.19,15.28a9.53,9.53,0,0,1-2,5.5,39.29,39.29,0,0,1-3.21,3.72c-3.18,3.05-6.36,6.15-10.59,7.78-4.64,1.78-8.15,1.12-11.1-2.84a20.05,20.05,0,0,1-3.52-7.8c-.78-3.91-.65-8-1-12a15.86,15.86,0,0,0-1-4.75,3.78,3.78,0,0,0-6.27-1,16.71,16.71,0,0,0-2.26,3c-3.12,5.33-6.15,10.71-9.27,16-1.69,2.89-3.5,5.71-5.26,8.56a5.23,5.23,0,0,1-.53-3.13c1.61-9.58,6.1-17.81,12.07-25.32a19.28,19.28,0,0,1,2.71-2.63c4.19-3.58,7.74-3.19,10.93.33a5.58,5.58,0,0,0,4.69,2c1.94-.13,2.88-1,2.46-2.85a11,11,0,0,0-1.8-4.11c-3.53-4.76-8.27-6.84-14.2-5.82a17.76,17.76,0,0,0-9.19,4.94c-1.92,1.8-3.86,3.57-6,5.59-7.12-2.6-14.82-1.73-22.41-.68-9,1.24-17.84,3.12-26.75,4.75-5.28,1-10.54,2-16,3a11.41,11.41,0,0,1-.09-2.16c1-6.08,1.88-12.19,3.14-18.22,4.2-20,8.36-39.94,12.9-59.82,2.89-12.64,6.4-25.14,9.7-37.68a20.49,20.49,0,0,0,.22-9.59c-4.59-1.63-6.18-1-7.68,3.13-1.65,4.62-3.3,9.27-4.69,14-6.66,22.47-12,45.29-16.7,68.23-2.32,11.22-4.44,22.47-6.6,33.72-.72,3.79-1.26,7.62-1.82,11a6.57,6.57,0,0,1-.85.47,290.45,290.45,0,0,0-88.07,36.19c-2.2,1.36-4.49,2.57-7.17,4.1,0-1.78-.1-2.92,0-4,.64-6.12,1.35-12.23,2-18.35,1.58-14.38,3-28.76,4.74-43.12C545.5,94.09,547,82,548.78,69.91c2.34-15.54,5.1-31,7.58-46.56a79.56,79.56,0,0,0,.73-9.4A26.71,26.71,0,0,0,556.76,8c-.43-2.3-2.07-3.72-3.71-3.73A5.15,5.15,0,0,0,548.6,8.2c-2.29,11.74-4.81,23.44-6.74,35.23-3.35,20.49-6.25,41.05-9.49,61.55-2.44,15.42-3.92,30.94-5.16,46.48-.2,2.51-.18,5-.38,7.54-.53,6.52-1.22,13-1.64,19.54a9.25,9.25,0,0,1-2.31,5.81,33,33,0,0,0-3.73,4.75,19.07,19.07,0,0,0-2.21,5.56c-.65,3.2,1.09,5.21,6,7.35-.18,4.1-.25,8.37-.59,12.62-.64,7.89-2,15.71-1.84,23.69.15,5.92-.11,11.86-.25,17.78-.2,8.69-.55,17.38-.63,26.07a8.49,8.49,0,0,0,1.66,4.47c1.28,1.88,3.4,1.29,5.24,1a2.76,2.76,0,0,0,2.37-2.94c.36-6.28.85-12.55,1.24-18.82.57-9.17,1-18.35,1.69-27.5.9-11.28,2.06-22.54,3.15-33.81a22.59,22.59,0,0,1,.8-3.17c5.89-.31,11.65-.7,17.42-.87,4.92-.15,9.9.38,14.76-.14a73.63,73.63,0,0,1,21.79,1c10.45,2,20,6,27.83,13.53a8.73,8.73,0,0,1,3,7.36c-.63,9.67-1.16,19.34-1.66,29a82.47,82.47,0,0,0-.06,8.32,4.84,4.84,0,0,0,3.53,4.48c1.89.66,3.82,0,5.21-2.09a16.42,16.42,0,0,0,2.56-5.42,140.41,140.41,0,0,0,2.87-17.45c.31-3.93-.65-8-1.07-11.94-.28-2.6-1.11-5.24-.84-7.78.85-7.88,2.06-15.71,3.21-23.56q3.27-22.22,6.62-44.41c.72-4.84,1.46-9.67,2.22-14.7,20.89-4.09,41.43-8.9,63.44-9-1,2.18-1.65,3.63-2.34,5.06-3.68,7.62-5.85,15.54-5.18,24.1.41,5.36,2.53,7.39,7.88,7.54a6.43,6.43,0,0,0,6-3.21c3.1-5,6-10.17,9.09-15.24,1-1.62,1.48-3.63,3.63-4.8a24.24,24.24,0,0,0,6.28,14.59c4.21,4.81,9.39,7,15.85,5.58a25.85,25.85,0,0,0,10.79-5.22l5.4-4.29a7.92,7.92,0,0,1,.38,1.57c0,4.91-.15,9.82-.16,14.73a17.4,17.4,0,0,0,.47,3.73,2.83,2.83,0,0,0,3.28,2.41c2.43-.13,3.76-1,4.31-3.43a21.65,21.65,0,0,0,.47-4.88c-.05-6.77,2.09-12.84,5.4-18.64,2.47-4.34,5.9-6.68,11-6.41s10,.41,15.3.61c.22,1.56.33,3.17.7,4.73a54,54,0,0,0,2,6.84c1.64,4.29,7.51,4.86,10.54,2.23a17,17,0,0,0,3.49-4c3.12-5.17,6.1-10.44,9.08-15.7,2.36-4.17,4.56-8.43,7-12.56,1.1-1.89,2.33-3.81,4.44-4.79,1,3.33,1.68,6.51,2.85,9.51,1.54,4,5.27,5.51,9.26,4a12.69,12.69,0,0,0,3.83-2.34c3.35-3.06,6.57-6.27,9.86-9.39a27.56,27.56,0,0,1,2.4-1.77,72.19,72.19,0,0,1-.45,7.78,150.94,150.94,0,0,0-1.92,29.34,41.08,41.08,0,0,0,3.63,15.34,10.21,10.21,0,0,0,8.24,6.47,15.6,15.6,0,0,0,11.46-2.85,50.76,50.76,0,0,0,12.9-13.16c.72-1.06,1.19-2.42,2.91-3.11v7.5a16.63,16.63,0,0,0,2.56,9.35,13.59,13.59,0,0,0,4,3.89c3.68,2.35,7.32,1.22,10.64-.93a24.36,24.36,0,0,0,9.24-11.24,53.91,53.91,0,0,0,4.07-25.53A21.64,21.64,0,0,0,931.57,128.14ZM622.38,208.2a21,21,0,0,1-2.47-1.59,53.51,53.51,0,0,0-25.76-11.92c-9.19-1.6-18.47-2.77-27.8-2.23-9.53.54-19.15,0-28.6,1.86a12.48,12.48,0,0,1-2,0c-.24-3.86-.33-7.52.76-11a7.57,7.57,0,0,1,3.15-3.57c6.57-4.23,13.1-8.56,19.91-12.36a296.3,296.3,0,0,1,49.78-21.84c5.84-2,11.83-3.5,17.78-5.16a38.08,38.08,0,0,1,4.51-.68C628.49,162.73,625.46,185.3,622.38,208.2Zm295.91-39c-1.77-2.67-1.8-5.71-1.32-8.61a101.74,101.74,0,0,1,2.91-12.42c1.46-4.9,3.29-9.69,5.13-15C932,141.25,927.34,164.54,918.29,169.15Z"/><path d="M172.49,38.46A47.83,47.83,0,0,0,170,24.81c-2.28-6.75-8.51-8.35-14.23-4a36.54,36.54,0,0,0-5.66,5.53c-6.63,7.85-11.58,16.76-16.36,25.81A413.19,413.19,0,0,0,111.34,103c-6.24,17-12.06,34.23-18.2,51.3-2.51,7-5.35,13.86-8.14,20.75-.7,1.75-1.39,3.7-3.6,4.44-.34-3.12-.68-6-1-8.86-1-9.35.2-18.65.9-27.93.8-10.81,1.54-21.6,1.32-32.44a53.38,53.38,0,0,0-1.25-10.46c-1.25-5.6-4.07-6-9.1-5-1.78.36-3.39,2.08-4.83,3.44a17.81,17.81,0,0,0-2.6,3.7A176.41,176.41,0,0,0,50,132.48c-7.12,19.43-12.45,39.39-17.52,59.42C28.45,208,24.35,224.15,18.8,239.85a38.46,38.46,0,0,1-2,4.87c-.31.6-1.11,1-1.77,1.48-3.77-13.27-4.56-26.48-4.93-39.67-.31-10.83.08-21.69.45-32.52.33-9.81.73-19.63,1.68-29.39,1.46-14.89,3.28-29.74,5.19-44.58a435.67,435.67,0,0,1,10.48-53.7C29.29,40.85,31,35.45,32.41,30c.9-3.58.16-5.57-1.76-6.3-2.37-.9-4.13-.1-5.7,3.55A132.2,132.2,0,0,0,19,43.11c-4.18,14.67-7,29.64-9.63,44.66-3.73,21.45-7,43-7.76,64.76-.09,2.64-.15,5.29-.29,7.94C.88,169,0,177.55,0,186.08.05,196.39.65,206.72,1.5,217a221.55,221.55,0,0,0,3.12,22A34.45,34.45,0,0,0,10,253a6.32,6.32,0,0,0,10.34.19,20.55,20.55,0,0,0,2.94-4.82A107.42,107.42,0,0,0,28,236c4.44-16,8.86-32,12.88-48.16,5-20.19,10.45-40.25,18.21-59.59,3.33-8.31,7.2-16.38,12.54-23.66.7-1,1.22-2.19,3.16-2.21.12,2.73.47,5.34.32,7.92-.49,8.54-1,17.1-1.8,25.6a270.81,270.81,0,0,0-1.42,33.2,38.48,38.48,0,0,0,3.9,16.8c1.91,3.76,5.45,4.72,8.81,2.2a16,16,0,0,0,4.46-5c3.12-5.89,6.44-11.76,8.71-18,6.78-18.58,13.1-37.33,19.59-56a355.67,355.67,0,0,1,32-68.35,87,87,0,0,1,8-10.46c1.06-1.25,2.73-2,4.7-3.36a76.8,76.8,0,0,1,.93,8.59,118,118,0,0,1-.74,13.56c-1.59,12.73-3.28,25.44-5.17,38.13-2.44,16.42-5.36,32.78-7.6,49.23C147,154.25,145,172.13,143.07,190c-1,8.87-1.41,17.79-2,26.7-.41,6-.65,12.06-1.06,18.09-.62,9.28-1.35,18.56-2,27.84-.41,5.9-.86,11.81-1,17.72-.15,4.75,0,9.52.22,14.27a7,7,0,0,0,1.71,3.67c1.61,1.95,3.74,1.68,4.85-.59a10.1,10.1,0,0,0,.79-3.64c.12-1.63,0-3.28,0-4.92.09-7.44-.19-14.92.36-22.33.83-11,2.33-22,3.39-33,1.37-14.27,2.32-28.58,4-42.82,1.57-13.61,3.75-27.16,5.73-40.72,2.07-14.19,4.23-28.37,6.35-42.55,1.66-11.07,3.27-22.15,5-33.21C171.27,62.57,172.86,50.57,172.49,38.46Z"/><path d="M383.5,143.14A22.89,22.89,0,0,0,377.62,128c-.75-.83-1.39-1.75-2.22-2.81,1.08-1.29,2.08-2.4,3-3.57a4.3,4.3,0,0,0,0-5.57c-1.25-1.67-2.72-2-5-1.17a12.42,12.42,0,0,0-6.09,5.47c-2.26,3.62-4.2,7.45-6.17,11.25a3.63,3.63,0,0,1-3,2.32,13.49,13.49,0,0,0-5.6,2c-8.82,6.08-17.52,12.33-26.23,18.56-2.32,1.66-4.55,3.44-7.11,5.38-4.06-7-10.16-11.26-16-15.89a14.61,14.61,0,0,1-3.81-4.61,5.32,5.32,0,0,1-.23-4.25c2.11-4,4.26-8.15,9.49-8.9,1.8-.26,2.46-1.45,2.62-3.14.38-3.78-1.8-6.06-5.61-5.61a12.53,12.53,0,0,0-3.94,1.22c-7.24,3.57-11.77,9.24-13.25,17.28a10.59,10.59,0,0,1-1.62,4.46c-3,3.92-6.13,7.68-9.32,11.41-4.67,5.48-9.69,10.59-16.14,14-5.42,2.89-8.14,3.8-11.74-4.56-.15-.35-.26-.71-.38-1.07-2.76-8.1-2.37-16.34-1.11-24.62.83-5.46,1.84-10.91,2.45-16.4.33-3.08-.26-3.61-2.44-4.39-2.51-.89-4.13-.65-5.65,1.58a20.68,20.68,0,0,0-3,6.44c-1.06,4.26-1.65,8.64-2.43,13-.15.86-.05,1.9-.51,2.53-3.69,5-7.67,9.7-13,13-8,5-13.82,2.07-17-6a6.29,6.29,0,0,1-.44-1.44c-.32-2.36-.65-4.73-.88-7.1-.3-3.12-.42-6.27-.78-9.39-.22-1.82-1-3.36-3.07-3.87a3.87,3.87,0,0,0-4.52,1.85c-1.18,1.79-2.52,3.48-3.59,5.33-2.53,4.36-4.9,8.81-7.41,13.19-1.53,2.67-3.2,5.27-4.81,7.91-.7-.67-.84-1.11-.81-1.55a29.52,29.52,0,0,1,.41-3.37c1.72-8.48,5.9-15.78,11.15-22.49a25.24,25.24,0,0,1,5.34-4.74c2.3-1.63,4.79-1.29,7.07.25a13.19,13.19,0,0,1,2,1.79,5.41,5.41,0,0,0,6.44,1.28c1.09-2.76,0-4.92-1.53-6.81-3.69-4.61-8.49-6.56-14.39-5.39a18.1,18.1,0,0,0-9.09,5.13c-8.91,8.63-14,19.35-16.35,31.34-.77,4-.28,8.23.1,12.32a6.12,6.12,0,0,0,2.7,3.78,7.87,7.87,0,0,0,10.44-2,98.55,98.55,0,0,0,5.61-8.52c1.92-3.25,3.57-6.66,5.42-10a12.56,12.56,0,0,1,2-2c.15,6.18,2.63,10.78,6.18,14.87,4.19,4.83,9.38,6.95,15.82,5.56a26,26,0,0,0,11.08-5.45c1.92-1.55,3.89-3,6.22-4.84.43,2.45.67,4.29,1.08,6.09,1.48,6.52,3.82,12.54,9.61,16.59a13.09,13.09,0,0,0,10,2.31c4.26-.67,7.79-2.81,11.16-5.24,6.91-5,12.34-11.48,18-17.77,1.59-1.78,3.06-3.64,4.79-5.71,6.56,6.64,14.65,11.41,19.48,19.89-1.41,1.55-2.69,3.08-4.1,4.49a132.48,132.48,0,0,0-17.63,21.66,35.78,35.78,0,0,0-6,20.68,10.7,10.7,0,0,0,12.43,10.88,22.86,22.86,0,0,0,12.7-6.19c5.89-5.58,9.66-12.54,12.87-19.85,3.93-8.92,5.09-18.26,2.68-27.68-1-3.71-.27-6,2.54-8,.31-.23.62-.45.9-.7,8.78-7.64,18.77-13.6,28.24-20.27a7.41,7.41,0,0,1,1.45-.56c-1.05,4-2,7.52-2.86,11.06-1.44,6.08-1.94,12.23-.28,18.33,2.54,9.36,10.54,11.84,18,5.66a27.43,27.43,0,0,0,8.44-12.33A57.71,57.71,0,0,0,383.5,143.14Zm-77.64,63.12c-2,3.35-5.29,6-8.12,8.81a6.14,6.14,0,0,1-3,1.46c-2.62.54-3.73-.4-3.95-3.11a22.64,22.64,0,0,1,2.47-12A78.26,78.26,0,0,1,307,181.66c2-2,3.92-4,6.38-6.58C315,187.23,311.45,197.09,305.86,206.26Zm58.63-37.12c-1.78-2.66-1.81-5.7-1.33-8.59a101.9,101.9,0,0,1,2.91-12.43c1.46-4.89,3.29-9.68,5.14-15C378.15,141.22,373.54,164.53,364.49,169.14Z"/><path d="M1123.12,134.18c-2.07-.23-3.85-.21-5.4,1.32-2.69,2.64-5.41,5.27-8.28,7.71-5.9,5-12.34,9.18-19.85,11.41-5.68,1.68-9.9.48-13.24-3.72-2.34-2.93-2.07-6.33-1.82-9.89,8.15-2.81,10.33-3.83,16.51-9.47,4.19-3.81,7.16-8.46,6.86-14.55a5.07,5.07,0,0,0-3.77-5,13.37,13.37,0,0,0-11.93,1.7,35.87,35.87,0,0,0-16.34,24,5.92,5.92,0,0,1-.93,2.74c-5.67,6.24-10.19,13.46-16.62,19.05a42.78,42.78,0,0,1-11.56,7.73c-3.31,1.37-5.16.84-7.13-2.11a21,21,0,0,1-2.29-4.74c-2.84-8.2-2.45-16.56-1.09-25,.88-5.46,1.67-10.93,2.43-16.4.24-1.73-.11-3.28-2-4s-3.9-.89-5.59.82a13.91,13.91,0,0,0-3.59,7.38c-1,4.92-1.59,9.92-2.42,14.87a7.08,7.08,0,0,1-.92,2.79c-3.39,4.86-6.78,9.72-10.37,14.43a24.13,24.13,0,0,1-5.1,5c-3.22,2.28-6.37,1.44-8.3-2a13.2,13.2,0,0,1-1.72-4.16q-1.23-7.25-2.08-14.53c-.6-5.11-.79-10.29-1.57-15.37-.75-4.85-4.43-6.29-8.17-3.14a40.53,40.53,0,0,0-7.06,7.79c-4,5.78-7.7,11.83-11.55,17.75a17,17,0,0,1-1.55,1.76,45.78,45.78,0,0,1,1.57-10.16c1.52-5.45,3.35-10.82,4.93-16.27a48.14,48.14,0,0,0,1.37-6.63c.2-1.49.26-3.15-1.56-3.86a4.12,4.12,0,0,0-4.85,1.09,17.87,17.87,0,0,0-2.65,3.66,76.45,76.45,0,0,0-9,37,19.33,19.33,0,0,0,1.71,7.26c1.33,3.06,4.38,3.86,7.31,2.2a11.74,11.74,0,0,0,3.36-3,70.31,70.31,0,0,0,4.87-7.19c3.37-5.76,6.55-11.64,9.92-17.4a67.81,67.81,0,0,1,4.3-5.74c.36,2.34.69,3.65.74,5,.1,2.39-.08,4.8.05,7.19.44,7.47,1.51,14.77,5.75,21.24,3.4,5.18,8.08,7.16,14,5.19a18,18,0,0,0,6.34-3.86c3.57-3.34,6.79-7,10.32-10.77a33.55,33.55,0,0,0,.79,3.34c1.28,3.67,2.1,7.64,4.07,10.9,4,6.58,9.7,10.33,17.76,7.91a34.83,34.83,0,0,0,8-4.11c6.5-4.07,11.15-10.16,16.45-15.52,1.46-1.48,2.76-3.12,4-4.59.5.22.66.24.72.33.34.52.65,1.07,1,1.6,3.15,4.88,7.38,8.29,13.24,9.19a25.76,25.76,0,0,0,14.69-2.45c10.3-4.63,18.69-11.83,26.52-19.78C1124.2,138.32,1124.56,136.36,1123.12,134.18Zm-32.53-15.41c-.67,5.62-6.07,11.16-14,14.34C1080.09,126.78,1083.82,121.69,1090.59,118.77Z"/><path d="M402,162.49a12.9,12.9,0,0,0,3.27-3.07,72.31,72.31,0,0,0,4.61-6.92c3.36-5.77,6.54-11.64,9.92-17.4a52.31,52.31,0,0,1,3.74-5l.79.3c.17,1.57.4,3.14.52,4.72.36,5.14.46,10.31,1.07,15.43a28.4,28.4,0,0,0,5.15,12.85c1.94,2.8,4.45,4.88,8,5.2A14.05,14.05,0,0,0,450.22,165a92.4,92.4,0,0,0,16.63-20.49,24.54,24.54,0,0,0,2.58-6.24,3.63,3.63,0,0,0-.82-3,2.71,2.71,0,0,0-3.8.11,24.47,24.47,0,0,0-3.22,3.67c-3.85,5.3-7.54,10.72-11.48,15.95a25.41,25.41,0,0,1-5.33,5.28c-3.2,2.28-6.35,1.4-8.27-2A13.36,13.36,0,0,1,434.8,154c-.82-4.82-1.5-9.67-2.07-14.52-.6-5.12-1-10.25-1.51-15.38-.5-5-5.57-5.88-8.33-3.12a40,40,0,0,0-4.74,4.83c-3.41,4.84-6.57,9.84-9.83,14.79-1.72,2.6-3.42,5.2-5.14,7.8l-.88-.39c.73-3.42,1.3-6.88,2.23-10.25,1.49-5.33,3.28-10.58,4.82-15.9a48.53,48.53,0,0,0,1.35-6.64c.21-1.49.24-3.14-1.59-3.83a4.12,4.12,0,0,0-4.84,1.13,18.54,18.54,0,0,0-2.65,3.66,76.72,76.72,0,0,0-9,36.66,20.41,20.41,0,0,0,1.56,7.3C395.59,163.56,398.92,164.44,402,162.49Z"/><path d="M439.31,352c0-6.32.11-12.63-.06-18.94a39.12,39.12,0,0,0-1.19-9c-1.18-4.43-4.31-6.62-8.83-7a15.49,15.49,0,0,0-11,3.39c-1.69,1.29-3.26,2.77-5.09,4.35-.4-.57-.64-.86-.82-1.18s-.29-.7-.46-1c-2-3.93-5.13-5.67-9.5-5.56-4,.11-7.27,1.85-10.31,4.22-1.13.87-2.25,1.77-3.84,3-.12-2.82-.21-4.88-.32-7.35l-13.47,5c.26.39.3.54.37.55.49.05,1,.07,1.48.11,3.24.26,4.17.87,4.23,4.09.16,9.21.07,18.42.08,27.63a6.46,6.46,0,0,1-.11.75,4.09,4.09,0,0,1-3.53,3.88,30.29,30.29,0,0,0-3.28,1.14c6.76.82,18.48.57,20.78-.3-5.78-1.75-5.89-1.9-5.91-8.14,0-6.69.23-13.4-.09-20.07-.18-3.62,1.46-5.62,4.18-7.32,7.11-4.43,12.93-1.58,13.37,6.72.26,5,.15,10.09.17,15.14,0,2.4,0,4.8-.13,7.19-.24,3.75-.91,4.5-4.42,5.66a13.43,13.43,0,0,0-1.75.85l.17.4h20a2.8,2.8,0,0,0-1.87-1.19,4.88,4.88,0,0,1-4-4.46,19.11,19.11,0,0,1-.38-3q-.06-10.8,0-21.59a4,4,0,0,1,.63-2.45c2.79-3.07,5.95-5.49,10.45-5.15,3.37.25,5.38,1.84,6.22,5.07a12.31,12.31,0,0,1,.5,3c.05,7.7.15,15.4,0,23.1-.07,3.62-.94,4.37-4.53,5.52-.52.17-1,.43-1.93.82,4.47,1,17.94.81,20.23-.14a2.36,2.36,0,0,0-.58-.43C439.55,357.75,439.33,357.48,439.31,352Z"/><path d="M324.76,353.61c0-1.26-.12-2.52-.12-3.78,0-5.68.12-11.37-.08-17a33.37,33.37,0,0,0-1.34-8.92c-1.35-4.24-4.62-6.42-9.13-6.71a15.39,15.39,0,0,0-11.77,4.21l-3.3,3v-9.78c0-3.16,0-6.31,0-9.47-.05-3,.26-5.93-.29-9.18L285.61,300l.13.76c.56.07,1.13.12,1.69.2,3,.44,3.31.76,3.67,3.8a12.78,12.78,0,0,1,.11,1.51c0,15.4-.07,30.8,0,46.2,0,3.81-1.26,6.34-5.24,7-.12,0-.19.38-.4.82h19.37c-5.59-2.94-5.7-3.1-5.72-9.5,0-6.69-.06-13.38,0-20.07,0-1.28.26-3,1.09-3.76a19.49,19.49,0,0,1,5.9-4c5.24-2.07,9,.1,10.08,5.58a23.49,23.49,0,0,1,.34,4.52c0,5.55,0,11.11,0,16.66,0,1.52,0,3-.14,4.54-.19,2.35-1.21,4.06-3.71,4.63a9.84,9.84,0,0,0-2,1,46.1,46.1,0,0,0,9.57.63,99.83,99.83,0,0,0,10.19-.22c-.88-.67-1.12-1-1.42-1.06C326,358.7,324.79,356.62,324.76,353.61Z"/><path d="M279.88,348.58c-3.89,2.44-7.2,5.1-10.94,6.76-14.88,6.6-30.05-1.39-33.31-17.29a44.86,44.86,0,0,1,.24-18.78,27,27,0,0,1,5.65-11.84,20.16,20.16,0,0,1,33.62,3.49c.93,1.77,1.58,3.7,2.35,5.56.44,1.06,1.05,1.75,2.6.94-.27-6.71-.55-13.57-.84-20.88-1.09.43-2,.5-2.29,1-1.74,2.36-3.91,2.35-6.42,1.62a60.93,60.93,0,0,0-7.7-1.9c-14.34-2.27-26.26,2.35-33.75,13.53a32.13,32.13,0,0,0-5.3,16.75c-.46,9.89,2.18,18.73,9.48,25.79,12.42,12,35,11.22,46.47-1.65.25-.28.51-.55.74-.85C281.42,349.6,280.68,349,279.88,348.58Z"/><path d="M463,321.51c-.65.61-1.34,1.17-2.58,2.23V295.93l-14,4.34c.55.45.72.71.91.73,4.9.47,5.19.72,5.28,5.68.07,4.54,0,9.08,0,13.62,0,10.85.09,21.7-.06,32.55,0,3,1,4.85,3.67,5.88a34.27,34.27,0,0,0,6.44,2.14c10.17,1.75,18.44-1.13,23.94-9.74,5.23-8.17,5-20.31-.42-27.54C480.19,315.72,470.16,314.82,463,321.51Zm18,27.6c-3,9.51-11,10.23-17.91,7.48-2-.8-2.78-2.36-2.75-4.49.06-3.65,0-7.31,0-11,0-3.41.05-6.81,0-10.22a6.46,6.46,0,0,1,3.68-6.1c6.05-3.48,12.59-1.55,15.53,4.76A26.21,26.21,0,0,1,481,349.11Z"/><path d="M651.66,349.65c0-.76,0-1.51,0-2.27q.2-24,.38-48c0-1,0-2,0-3.36L638,300.12l.14.76c.57,0,1.14.1,1.71.13,3.58.16,4.1.62,4.21,4.28s.06,7.31,0,11c0,1.3-.11,2.6-.18,3.95a5.81,5.81,0,0,1-1.13-.29c-7.48-4.46-15.17-3.48-21.27,2.72a24.27,24.27,0,0,0-6.8,13.26c-1.26,7.55-.09,14.53,5.26,20.47,5.69,6.32,16.62,6.59,21.8,1.17a18.71,18.71,0,0,1,2.18-1.62c.12,1.9.21,3.39.31,5.16,5.85-1.32,11.8-3.62,13.8-5.31a5.22,5.22,0,0,0-1-.34C652.22,355,651.79,354.48,651.66,349.65Zm-13,6.1a11.58,11.58,0,0,1-12.1-4.32c-5-6.78-5.57-19.05-1.16-26.24,3.33-5.43,9.15-7,14.3-3.84a8.55,8.55,0,0,1,4.29,7.53c.1,3.53,0,7.06,0,10.59h.06c0,3.15-.22,6.32.06,9.45C644.39,351.86,641.68,355,638.65,355.75Z"/><path d="M746.23,351.51c0-1.13,0-2.27,0-3.41,0-5.42.09-10.85-.05-16.27a29.07,29.07,0,0,0-1-7.08c-1.4-4.93-4.93-7.41-10.05-7.61A15.09,15.09,0,0,0,724.37,321c-1,.89-2,1.86-3,2.79l-.88-.22V296.21c-6.3,1.25-11.45,3-13.14,4.49,5,.68,5.53,1.11,5.54,5.65,0,15.39,0,30.78,0,46.17,0,3.47-.93,6.26-5,6.84-.27,0-.5.39-.83.67,3.92.89,17,.77,19.81-.24a11.84,11.84,0,0,0-1.85-.73,4.47,4.47,0,0,1-4-4.7c0-.75-.21-1.5-.21-2.26,0-7.31,0-14.63,0-22a4.42,4.42,0,0,1,.76-2.81c2.86-3,6.13-5.25,10.6-4.84,2.53.22,4.36,1.4,5.07,3.84a21,21,0,0,1,1,5.54c.11,6.81,0,13.63.06,20.44.06,3.94-1.36,6.54-5.48,7.23-.12,0-.18.38-.27.58,4.28.87,16.81.66,19.51-.58C746.67,359,746.15,355.44,746.23,351.51Z"/><path d="M776.71,317.15c-7.36-.14-12.91,2.56-17.05,8.11-7.19,9.64-5.48,24.43,3.7,32.19A20.1,20.1,0,0,0,792,354.7c4.35-5.41,5.75-11.62,5.13-18.43C796.11,324.8,787.8,317.16,776.71,317.15Zm9.6,36.79c-3.26,6.37-10.68,7.49-15.77,2.41a8.84,8.84,0,0,1-1.23-1.43c-5.62-8.81-6.95-18.25-3.71-28.18a9.42,9.42,0,0,1,8.58-7A10.16,10.16,0,0,1,784,325c3.29,5.27,4.71,11.08,4.7,18.49A22.92,22.92,0,0,1,786.31,353.94Z"/><path d="M366,350.26c0-3.78,0-7.57,0-11.36,0-3.53.09-7.08-.19-10.59q-.7-8.76-8.62-10.63a22.11,22.11,0,0,0-12.68.62,13,13,0,0,0-6.84,5.72,8.54,8.54,0,0,0-1.15,3.16,4.38,4.38,0,0,0,3.94,5.06c2.61.19,4.29-1.6,4.24-4.57a23.86,23.86,0,0,1-.22-3,4.77,4.77,0,0,1,1-2.74c2.26-2.18,5-2.57,8.08-1.86a5.55,5.55,0,0,1,4.58,5.33c.22,2.6,0,5.23,0,7.92-1.17.49-2.21.91-3.24,1.36-4.05,1.76-8.16,3.4-12.12,5.33a14,14,0,0,0-7.38,7.76c-2.63,7.17,2.2,14.07,9.77,13.45,2.77-.23,5.51-1.58,8.12-2.74a35.1,35.1,0,0,0,5-3.38c.91,4.18,2.93,6.9,7.58,6.18a8.18,8.18,0,0,0,6.92-6.15C367.11,356.78,366.08,356,366,350.26Zm-7.77,0a5.27,5.27,0,0,1-1.61,3.23,9.34,9.34,0,0,1-8.77,2.32c-4.13-.95-6.21-5.91-4.11-10.07a14.26,14.26,0,0,1,3.58-4.28c3-2.53,6.62-4,11-5.27C358.34,341.19,358.45,345.72,358.27,350.23Z"/><path d="M556.63,351.25a13.85,13.85,0,0,1-16.19,1.26c-5-3-8.93-12.18-7.36-18.43h9.3c3.28,0,6.56.08,9.83,0,3.08-.1,6.21.48,9.19-.4a15,15,0,0,0-12.18-16.12c-6.88-1.46-13,.33-17.78,5.78-7.61,8.69-7.9,23.21-.65,32.19a14.93,14.93,0,0,0,11.05,5.77c10,.67,18.5-5.55,20.8-16.2a14.09,14.09,0,0,0-1.76,1.38C559.44,348,558.21,349.83,556.63,351.25Zm-13.82-30.79c5.66,0,8.88,3.72,8.65,10.1H533.14C533.07,324.77,537.25,320.42,542.81,320.46Z"/><path d="M863,346.24c-1.18,1.32-2.14,2.83-3.39,4.07A13.76,13.76,0,0,1,838,348.18c-2.75-4.11-3.47-8.79-3.66-14.06h29.12c0-8.74-4.68-15.08-12.29-16.59-6.9-1.38-13,.32-17.8,5.79-7.59,8.71-8,22.77-.89,31.91a15,15,0,0,0,11.31,6A21,21,0,0,0,865,346.41c.09-.3-.11-.68-.25-1.39A9.48,9.48,0,0,0,863,346.24Zm-18.63-25.77c5.74-.2,9.12,3.42,9.19,10.08H835.2A9.28,9.28,0,0,1,844.33,320.47Z"/><path d="M888.91,336c-2.58-1.57-5.38-2.81-7.84-4.54-3.12-2.2-3.87-5.06-2.57-7.9s4.21-4.2,7.59-3.75c4.19.56,6.79,3.06,8.29,6.87.52,1.32,1,2.66,1.54,4l1-.16c.17-4,0-8.07-.13-11.68-2.46-.29-4.22-.51-6-.7-2.73-.29-5.52-1-8.2-.74-4.86.52-8.47,3.16-10,8a10.76,10.76,0,0,0,3.44,12,39.43,39.43,0,0,0,5.55,3.93c2.14,1.32,4.44,2.4,6.59,3.71a15.51,15.51,0,0,1,3.56,2.76,6.33,6.33,0,0,1-3,10.55,10.66,10.66,0,0,1-12.16-4.65,48.66,48.66,0,0,1-2.37-5.53,19.52,19.52,0,0,0-1.41-2.19c-1,4.26-.85,12.31.07,14.82,2.39-1.26,2.39-1.27,4.9-.67,1.1.27,2.19.6,3.31.8,3.91.68,7.79.73,11.53-.82,8.42-3.48,10.29-13.24,3.56-19.33A46.81,46.81,0,0,0,888.91,336Z"/><path d="M814.81,351.94a17.79,17.79,0,0,1-.37-4.13c0-5.68,0-11.35,0-17v-9.66h9.27v-3l-9.37-.43V306.17c-2.67,2.34-4.54,5-6.67,7.41s-4.45,4.54-7.16,7.28l6,.62v4.14c0,7.45,0,14.89,0,22.33a34.66,34.66,0,0,0,.59,7.14c1,4.34,3.84,6.4,8.2,6.22s7.46-2.72,9.86-6.17a11.39,11.39,0,0,0,.71-2.76c-1.57,1.23-2.39,1.94-3.28,2.56C819.21,357.27,815.77,356,814.81,351.94Z"/><path d="M520.28,317.23a7.09,7.09,0,0,0-5.73,1.4c-1.65,1.35-3.11,2.94-4.67,4.4-.56.53-1.17,1-2.27,1.9v-7.46c-4.82.92-12.23,3.7-13.87,5.17,5,.16,5.94,1.14,6.24,6.32.06,1.13.06,2.27.06,3.41q0,5.49,0,11c0,3.16,0,6.32,0,9.47-.1,4.37-.77,5.16-4.92,6.35a15.58,15.58,0,0,0-2.38,1.31h23c-.66-.58-.81-.82-1-.86-5.93-1.4-6.83-2.44-6.88-8.4-.05-6.19,0-12.38,0-18.56a9.52,9.52,0,0,1,2.1-6.32c2.7-3.31,3.93-3.53,7.46-1.07,1.69,1.17,3.4,1.72,5.27.57a4.86,4.86,0,0,0-2.33-8.61Z"/><path d="M1029.17,93a6.89,6.89,0,0,0,9.57-5.52,12.46,12.46,0,0,0-2.62-8.86c-2-2.71-4.57-2.88-7.17-.68s-3.35,4.94-3.29,8.11C1025.56,89,1026.24,91.63,1029.17,93Z"/><path d="M251.22,93.06a6.89,6.89,0,0,0,9.48-5.68A12.48,12.48,0,0,0,258,78.55c-1.92-2.56-4.4-2.77-6.9-.76-2.68,2.15-3.57,5.08-3.48,8.4C247.51,89.16,248.26,91.73,251.22,93.06Z"/><path d="M769.85,308.39c2.31-1.69,4.41-3.67,6.72-5.63,3.36,2.86,6.52,5.52,9.65,8.22,1.27,1.09,2.51,2.16,4.85,1.15-3.51-4.72-6.76-9.17-10.09-13.56a5.71,5.71,0,0,0-8.93.13c-2.89,3.81-5.72,7.65-8.55,11.51a19.47,19.47,0,0,0-1.18,2.22C766.2,313.11,767.64,310,769.85,308.39Z"/><path d="M672,296.75a5.16,5.16,0,0,0-4.57,5.5c.11,2.5,1.9,4.27,4.67,4.48,1.36.1,2.73,0,4.45,0a6.37,6.37,0,0,1-1.51,5.93,45.92,45.92,0,0,1-4.33,4.15c-.78.7-1.7,1.24-.41,2.77,4.54-2.32,8.15-5.61,9.74-10.61a13.94,13.94,0,0,0,.26-6.3A7.22,7.22,0,0,0,672,296.75Z"/></svg>