<svg xmlns="http://www.w3.org/2000/svg" viewBox="0 0 1124.82 362.48"><path d="M895.47,371.17a29.24,29.24,0,0,0,3.15-2.86c2.16-2.75,5.11-3.51,8.39-3.51h19.91c.26-1.48.59-3.18.86-4.89a49.83,49.83,0,0,1,5.34-16.07c1.69-3.12,3.47-4,6.41-3.46,2.28.43,3.39,1.52,3.33,3.85a34.4,34.4,0,0,1-.86,5.58c-1.15,5.8-2.4,11.58-3.49,17.39a8.16,8.16,0,0,0,.64,4.57c2.31-3.83,4.64-7.65,6.93-11.49,2.2-3.68,4.16-7.53,6.59-11a60.8,60.8,0,0,1,7.24-8.69c3.9-3.85,9.4-2.49,11.1,2.74,1.09,3.32,1.52,6.85,2.3,10.58,1.47.23,2.59-1.09,3.69-2.16,3.45-3.32,6.69-6.86,10.23-10.08a19.65,19.65,0,0,1,5.93-3.85c3.55-1.38,6.8.45,7.38,4.21a55.22,55.22,0,0,1,.6,10.9c-.46,9.42-1.37,18.82-1.79,28.25a70.19,70.19,0,0,0,.83,10.9,12.2,12.2,0,0,0,1.13,3.59c1.9,4.3,4.74,5.16,8.32,2.09a46.17,46.17,0,0,0,7.72-8.27c4.66-6.58,8.91-13.46,13.39-20.18.67-1,1.49-2.34,2.51-2.65,2.06-.62,2.56-2.22,3.28-3.79,2.46-5.4,4.87-10.85,9.31-15a11.52,11.52,0,0,1,3.43-2.21c2.23-.93,3.76-.4,5,1.35a4.21,4.21,0,0,1,0,5.26c-.91,1.19-1.93,2.29-3.11,3.67.86,1.1,1.57,2.09,2.38,3a21.61,21.61,0,0,1,5.62,13,53.94,53.94,0,0,1-4.06,25.54,24.55,24.55,0,0,1-9.25,11.26c-3.33,2.15-7,3.27-10.65.92a13.51,13.51,0,0,1-4-3.89,16.74,16.74,0,0,1-2.56-9.36c0-2.38,0-4.76,0-7.5-1.72.69-2.19,2.05-2.91,3.11a50.68,50.68,0,0,1-12.91,13.17,15.62,15.62,0,0,1-11.46,2.85,10.21,10.21,0,0,1-8.25-6.47,41,41,0,0,1-3.63-15.36,149.64,149.64,0,0,1,1.92-29.36,74.92,74.92,0,0,0,.44-7.78,27.08,27.08,0,0,0-2.39,1.77c-3.3,3.12-6.52,6.34-9.88,9.39a12.29,12.29,0,0,1-3.83,2.35c-4,1.55-7.72,0-9.27-4-1.16-3-1.86-6.18-2.84-9.51-2.12,1-3.34,2.9-4.45,4.79-2.43,4.14-4.63,8.4-7,12.57-3,5.27-6,10.54-9.09,15.72a17.25,17.25,0,0,1-3.49,3.95c-3,2.63-8.91,2.06-10.55-2.24a53.51,53.51,0,0,1-2-6.84c-.37-1.56-.48-3.17-.7-4.73-5.28-.21-10.3-.35-15.31-.62s-8.54,2.07-11,6.42c-3.31,5.81-5.46,11.88-5.4,18.65a21.55,21.55,0,0,1-.48,4.88c-.54,2.45-1.88,3.31-4.3,3.44a2.83,2.83,0,0,1-3.29-2.41,17.48,17.48,0,0,1-.47-3.73c0-4.92.11-9.83.16-14.75a7.89,7.89,0,0,0-.38-1.56l-5.4,4.29a26,26,0,0,1-10.8,5.22c-6.46,1.39-11.65-.77-15.86-5.58a24.27,24.27,0,0,1-6.29-14.6c-2.15,1.16-2.66,3.18-3.63,4.8-3,5.07-6,10.21-9.1,15.25a6.44,6.44,0,0,1-6,3.22c-5.36-.16-7.47-2.19-7.89-7.55-.67-8.57,1.5-16.5,5.19-24.12.69-1.43,1.33-2.89,2.34-5.06-22,.15-42.58,4.95-63.49,9-.76,5-1.5,9.87-2.22,14.71q-3.31,22.23-6.62,44.45c-1.15,7.85-2.37,15.69-3.22,23.57-.27,2.54.56,5.19.84,7.79.43,4,1.38,8,1.08,11.94a142.33,142.33,0,0,1-2.88,17.47,16.33,16.33,0,0,1-2.56,5.42c-1.39,2.11-3.32,2.75-5.21,2.09a4.82,4.82,0,0,1-3.53-4.48c-.13-2.77-.09-5.55,0-8.32q.75-14.53,1.66-29.05a8.68,8.68,0,0,0-3-7.36c-7.87-7.49-17.39-11.55-27.85-13.54a73.71,73.71,0,0,0-21.8-1c-4.87.52-9.85,0-14.77.14-5.78.17-11.55.56-17.43.87a24.29,24.29,0,0,0-.81,3.17c-1.09,11.28-2.25,22.54-3.15,33.83-.73,9.16-1.12,18.35-1.69,27.53-.39,6.28-.88,12.55-1.24,18.83a2.76,2.76,0,0,1-2.38,2.94c-1.83.32-4,.91-5.24-1a8.55,8.55,0,0,1-1.66-4.48c.08-8.7.43-17.39.63-26.09.15-5.93.4-11.87.25-17.8-.2-8,1.21-15.8,1.84-23.7.34-4.26.41-8.53.59-12.63-5-2.14-6.69-4.15-6-7.35a19.13,19.13,0,0,1,2.21-5.57,33.17,33.17,0,0,1,3.73-4.75,9.25,9.25,0,0,0,2.32-5.82c.41-6.52,1.11-13,1.63-19.55.21-2.51.19-5,.39-7.54,1.24-15.56,2.72-31.09,5.16-46.52,3.24-20.52,6.14-41.09,9.5-61.59,1.93-11.81,4.46-23.52,6.74-35.26a5.13,5.13,0,0,1,4.46-3.91c1.63,0,3.27,1.42,3.71,3.73a27.33,27.33,0,0,1,.33,5.93A77.66,77.66,0,0,1,678,254c-2.47,15.54-5.23,31-7.58,46.6-1.82,12.07-3.28,24.19-4.71,36.32-1.69,14.37-3.16,28.76-4.74,43.15-.67,6.12-1.38,12.24-2,18.37-.12,1.11,0,2.24,0,4,2.69-1.53,5-2.75,7.18-4.1a290.35,290.35,0,0,1,88.13-36.22,7.28,7.28,0,0,0,.86-.48c.56-3.43,1.09-7.25,1.82-11.05,2.15-11.25,4.28-22.52,6.6-33.74,4.75-23,10-45.8,16.71-68.29,1.4-4.71,3-9.36,4.7-14,1.49-4.15,3.09-4.76,7.68-3.13a20.53,20.53,0,0,1-.22,9.6c-3.3,12.55-6.81,25.06-9.7,37.71-4.55,19.9-8.71,39.88-12.91,59.86-1.27,6-2.13,12.15-3.15,18.23a11.64,11.64,0,0,0,.1,2.17c5.51-1.05,10.77-2.08,16-3,8.92-1.64,17.8-3.52,26.78-4.76,7.58-1.05,15.3-1.92,22.42.68,2.19-2,4.13-3.79,6-5.59a17.77,17.77,0,0,1,9.2-4.95c5.93-1,10.68,1.06,14.21,5.83a10.92,10.92,0,0,1,1.8,4.11c.42,1.86-.52,2.72-2.46,2.85a5.58,5.58,0,0,1-4.69-2c-3.2-3.52-6.75-3.92-10.94-.33a19.92,19.92,0,0,0-2.72,2.63c-6,7.52-10.46,15.75-12.07,25.34a5.2,5.2,0,0,0,.53,3.14c1.76-2.86,3.57-5.68,5.26-8.57,3.13-5.34,6.16-10.72,9.28-16.06a16.71,16.71,0,0,1,2.26-3,3.79,3.79,0,0,1,6.28,1,15.79,15.79,0,0,1,1,4.75c.38,4,.25,8.1,1,12a20.05,20.05,0,0,0,3.52,7.8c3,4,6.46,4.63,11.11,2.84,4.24-1.63,7.41-4.73,10.6-7.78a40.79,40.79,0,0,0,3.21-3.72,9.5,9.5,0,0,0,2-5.51c.46-5.12,1.3-10.22,2.2-15.29.3-1.69,1-3.37,3.34-3.51,3.32-.2,4.88,1.2,4.7,4.75C896.34,358.49,895.91,364.38,895.47,371.17ZM744,439c3.08-22.92,6.12-45.5,9.22-68.53a38.4,38.4,0,0,0-4.52.69c-5.94,1.66-11.94,3.19-17.78,5.16a295.62,295.62,0,0,0-49.82,21.86c-6.82,3.8-13.35,8.13-19.92,12.36a7.64,7.64,0,0,0-3.16,3.57c-1.09,3.47-1,7.14-.76,11a12.44,12.44,0,0,0,2.06,0c9.46-1.84,19.07-1.31,28.61-1.86,9.34-.54,18.62.63,27.82,2.24a53.37,53.37,0,0,1,25.78,11.93A23.35,23.35,0,0,0,744,439Zm302.86-75.18c-1.85,5.36-3.68,10.15-5.14,15.05a101.9,101.9,0,0,0-2.91,12.43c-.48,2.9-.45,5.94,1.32,8.61C1049.23,395.31,1053.84,372,1046.9,363.82ZM284.28,266.19a118.17,118.17,0,0,1-.74,13.57c-1.59,12.74-3.28,25.46-5.17,38.15-2.44,16.44-5.37,32.81-7.61,49.27-2.43,17.82-4.43,35.71-6.37,53.6-1,8.88-1.41,17.81-2,26.72-.41,6-.65,12.07-1.06,18.11-.62,9.28-1.35,18.57-2,27.86-.4,5.9-.86,11.81-1,17.72-.14,4.76,0,9.53.23,14.29a7,7,0,0,0,1.7,3.67c1.61,2,3.75,1.68,4.86-.59a10.1,10.1,0,0,0,.79-3.64c.12-1.64,0-3.29,0-4.93.09-7.45-.19-14.92.36-22.34.83-11,2.33-22,3.39-33,1.38-14.28,2.33-28.6,4-42.85,1.57-13.62,3.75-27.17,5.73-40.75,2.07-14.2,4.23-28.39,6.36-42.58,1.66-11.08,3.27-22.16,5-33.23,1.89-12,3.48-24,3.11-36.07a47.83,47.83,0,0,0-2.51-13.66c-2.28-6.76-8.52-8.37-14.24-4a36.15,36.15,0,0,0-5.66,5.54c-6.64,7.85-11.59,16.76-16.38,25.83a413,413,0,0,0-22.4,50.85c-6.25,17.05-12.07,34.25-18.22,51.33-2.51,7-5.35,13.88-8.14,20.77-.71,1.75-1.39,3.7-3.6,4.44-.35-3.12-.69-6-1-8.87-.95-9.35.21-18.65.9-27.94.81-10.82,1.55-21.62,1.33-32.47a53.31,53.31,0,0,0-1.26-10.46c-1.25-5.61-4.07-6-9.1-5-1.78.37-3.39,2.08-4.83,3.44a17.54,17.54,0,0,0-2.61,3.71,175.87,175.87,0,0,0-14.82,30.6c-7.13,19.44-12.47,39.42-17.54,59.47-4.08,16.13-8.17,32.26-13.73,48a39.08,39.08,0,0,1-2,4.87c-.31.61-1.12,1-1.77,1.49-3.78-13.28-4.57-26.51-4.94-39.71-.31-10.84.08-21.7.45-32.54.33-9.81.73-19.65,1.69-29.41,1.45-14.9,3.28-29.77,5.18-44.61A436.51,436.51,0,0,1,149.11,277c1.42-5.48,3.16-10.89,4.54-16.38.9-3.59.16-5.58-1.76-6.31-2.37-.9-4.14-.1-5.71,3.55a134.27,134.27,0,0,0-5.94,15.92c-4.18,14.67-7,29.66-9.63,44.68-3.73,21.47-7,43-7.76,64.81-.09,2.65-.15,5.3-.29,7.94-.47,8.55-1.39,17.1-1.34,25.64,0,10.32.65,20.65,1.49,30.94.61,7.39,1.79,14.75,3.13,22a34.41,34.41,0,0,0,5.41,14,6.32,6.32,0,0,0,10.34.19,20.28,20.28,0,0,0,2.94-4.83,105.08,105.08,0,0,0,4.67-12.38c4.44-16,8.88-32.06,12.89-48.19,5-20.21,10.46-40.28,18.22-59.63,3.34-8.32,7.21-16.4,12.56-23.68.7-1,1.22-2.2,3.16-2.21.12,2.73.46,5.34.32,7.93-.49,8.54-.95,17.1-1.8,25.62a269.08,269.08,0,0,0-1.42,33.22A38.55,38.55,0,0,0,197,416.71c1.92,3.77,5.46,4.72,8.82,2.2a15.84,15.84,0,0,0,4.47-5c3.12-5.89,6.44-11.77,8.71-18,6.79-18.59,13.11-37.35,19.61-56.05a355.62,355.62,0,0,1,32-68.4,85.11,85.11,0,0,1,8-10.47c1.06-1.25,2.73-2,4.7-3.36A74.89,74.89,0,0,1,284.28,266.19Zm148,131.72c-4.83-8.48-12.93-13.26-19.49-19.9-1.73,2.07-3.21,3.94-4.8,5.71-5.62,6.3-11,12.8-18,17.78-3.38,2.44-6.91,4.58-11.17,5.26a13.09,13.09,0,0,1-10-2.33c-5.8-4.05-8.15-10.07-9.62-16.59-.41-1.8-.66-3.64-1.09-6.09-2.33,1.81-4.3,3.29-6.22,4.84A26.06,26.06,0,0,1,340.86,392c-6.44,1.39-11.64-.73-15.83-5.57-3.55-4.08-6-8.69-6.18-14.87a12.19,12.19,0,0,0-2,2c-1.85,3.3-3.51,6.71-5.43,10a100.12,100.12,0,0,1-5.61,8.52,7.89,7.89,0,0,1-10.45,2,6.12,6.12,0,0,1-2.7-3.78c-.38-4.09-.87-8.37-.1-12.33,2.33-12,7.44-22.72,16.36-31.36a18.07,18.07,0,0,1,9.1-5.14c5.9-1.17,10.7.79,14.4,5.4,1.51,1.89,2.62,4.06,1.53,6.81a5.38,5.38,0,0,1-6.44-1.28,13.71,13.71,0,0,0-1.95-1.79c-2.29-1.54-4.78-1.88-7.09-.25a25,25,0,0,0-5.34,4.75c-5.25,6.71-9.43,14-11.15,22.5a29.42,29.42,0,0,0-.41,3.38c0,.43.11.88.81,1.54,1.61-2.63,3.28-5.24,4.81-7.92,2.51-4.37,4.89-8.83,7.42-13.19,1.07-1.85,2.4-3.55,3.59-5.33a3.85,3.85,0,0,1,4.52-1.85c2.05.5,2.86,2,3.07,3.87.36,3.12.48,6.27.78,9.4.23,2.37.56,4.73.88,7.1a6.32,6.32,0,0,0,.45,1.44c3.19,8.12,9,11,17,6.05,5.35-3.32,9.33-8.05,13-13,.46-.62.35-1.67.51-2.52.78-4.34,1.37-8.72,2.43-13a20.57,20.57,0,0,1,3-6.44c1.52-2.24,3.15-2.47,5.65-1.58,2.19.77,2.78,1.31,2.44,4.39-.6,5.5-1.62,10.95-2.45,16.42-1.26,8.28-1.65,16.53,1.12,24.63.12.36.23.72.38,1.07,3.6,8.37,6.32,7.45,11.74,4.56,6.46-3.45,11.48-8.56,16.16-14,3.19-3.74,6.36-7.51,9.33-11.42a10.76,10.76,0,0,0,1.61-4.47c1.48-8.05,6-13.71,13.26-17.29a12.58,12.58,0,0,1,3.95-1.22c3.81-.45,6,1.83,5.62,5.61-.17,1.69-.83,2.88-2.63,3.14-5.23.75-7.39,4.92-9.49,8.91a5.28,5.28,0,0,0,.22,4.25,14.76,14.76,0,0,0,3.81,4.62c5.82,4.63,11.93,8.93,16,15.9,2.57-2,4.8-3.72,7.12-5.38,8.72-6.24,17.42-12.49,26.25-18.58a13.54,13.54,0,0,1,5.6-2,3.64,3.64,0,0,0,3-2.32c2-3.8,3.91-7.63,6.17-11.26a12.42,12.42,0,0,1,6.09-5.47c2.32-.85,3.79-.51,5,1.16a4.31,4.31,0,0,1,0,5.58c-.92,1.18-1.92,2.29-3,3.57.84,1.07,1.48,2,2.23,2.81A22.91,22.91,0,0,1,505,373.89a57.76,57.76,0,0,1-3.25,21.18,27.63,27.63,0,0,1-8.46,12.34c-7.47,6.18-15.48,3.7-18-5.67-1.66-6.1-1.16-12.25.28-18.34.84-3.54,1.82-7,2.86-11.06a8.65,8.65,0,0,0-1.45.55c-9.48,6.68-19.47,12.65-28.26,20.29-.28.25-.59.47-.9.7-2.81,2.06-3.5,4.32-2.55,8,2.42,9.42,1.26,18.77-2.67,27.69-3.21,7.32-7,14.29-12.89,19.87a22.74,22.74,0,0,1-12.7,6.19,10.7,10.7,0,0,1-12.44-10.88,35.77,35.77,0,0,1,6-20.7,132.19,132.19,0,0,1,17.64-21.67C429.62,401,430.9,399.46,432.31,397.91Zm2.54,7.94c-2.46,2.54-4.43,4.55-6.39,6.58a78.79,78.79,0,0,0-13.77,19.73,22.72,22.72,0,0,0-2.46,12.06c.22,2.71,1.32,3.65,3.95,3.11a6.14,6.14,0,0,0,3-1.46c2.83-2.83,6.08-5.47,8.13-8.82C432.89,427.88,436.46,418,434.85,405.85Zm57.84-42c-1.85,5.35-3.68,10.14-5.14,15a102.05,102.05,0,0,0-2.91,12.44c-.48,2.89-.46,5.93,1.32,8.6C495,395.29,499.64,372,492.69,363.83Zm703.84,7.93c-.26,3.56-.53,7,1.81,9.89,3.35,4.2,7.57,5.41,13.25,3.73,7.52-2.24,14-6.4,19.87-11.42,2.87-2.45,5.6-5.07,8.29-7.72,1.55-1.53,3.32-1.55,5.4-1.32,1.44,2.18,1.08,4.14-.73,6-7.84,8-16.23,15.16-26.54,19.8a25.82,25.82,0,0,1-14.71,2.45c-5.85-.9-10.09-4.32-13.24-9.2-.34-.52-.65-1.07-1-1.6,0-.08-.21-.1-.71-.32-1.28,1.46-2.58,3.1-4,4.58-5.3,5.37-10,11.46-16.46,15.53a34.68,34.68,0,0,1-8,4.12c-8.07,2.43-13.8-1.33-17.77-7.91-2-3.27-2.8-7.24-4.08-10.91-.36-1-.51-2.15-.79-3.34-3.53,3.73-6.76,7.43-10.33,10.77a18.19,18.19,0,0,1-6.34,3.87c-5.9,2-10.58,0-14-5.19-4.25-6.48-5.32-13.79-5.75-21.26-.14-2.4,0-4.8-.05-7.2-.06-1.32-.38-2.64-.74-5a67.59,67.59,0,0,0-4.31,5.75c-3.37,5.76-6.55,11.65-9.92,17.42a74.45,74.45,0,0,1-4.88,7.19,11.74,11.74,0,0,1-3.36,3c-2.94,1.67-6,.86-7.32-2.2a19.53,19.53,0,0,1-1.71-7.27,76.52,76.52,0,0,1,9-37.06,18.37,18.37,0,0,1,2.66-3.67,4.11,4.11,0,0,1,4.85-1.08c1.83.71,1.77,2.37,1.56,3.86a47.13,47.13,0,0,1-1.37,6.64c-1.58,5.44-3.41,10.82-4.93,16.28a45.78,45.78,0,0,0-1.57,10.16,16.1,16.1,0,0,0,1.55-1.77c3.85-5.92,7.52-12,11.56-17.76a40.53,40.53,0,0,1,7.06-7.79c3.75-3.15,7.43-1.71,8.18,3.15.78,5.08,1,10.26,1.57,15.37.57,4.86,1.26,9.72,2.08,14.54a13.15,13.15,0,0,0,1.72,4.17c1.93,3.4,5.09,4.24,8.31,2a24.22,24.22,0,0,0,5.11-5c3.58-4.71,7-9.57,10.37-14.44a7,7,0,0,0,.92-2.78c.83-5,1.45-10,2.42-14.89a14,14,0,0,1,3.59-7.39c1.7-1.7,3.57-1.56,5.59-.81s2.29,2.26,2.05,4c-.76,5.48-1.55,10.95-2.43,16.41-1.36,8.42-1.75,16.78,1.09,25a21.24,21.24,0,0,0,2.29,4.75c2,2.94,3.83,3.47,7.13,2.11a42.53,42.53,0,0,0,11.58-7.74c6.43-5.6,11-12.82,16.63-19.06a5.92,5.92,0,0,0,.93-2.75,35.87,35.87,0,0,1,16.35-24,13.37,13.37,0,0,1,11.93-1.71,5.09,5.09,0,0,1,3.78,5.05c.3,6.09-2.67,10.74-6.86,14.56C1206.86,367.92,1204.68,368.94,1196.53,371.76Zm16.06-22.26c-6.77,2.92-10.5,8-14,14.35C1206.52,360.67,1211.93,355.12,1212.59,349.5ZM523.81,378.78c.73-3.42,1.29-6.89,2.23-10.25,1.48-5.34,3.28-10.6,4.82-15.92a47.07,47.07,0,0,0,1.35-6.64c.21-1.49.25-3.14-1.59-3.84a4.15,4.15,0,0,0-4.84,1.13,17.93,17.93,0,0,0-2.65,3.67,76.73,76.73,0,0,0-9,36.69,20.2,20.2,0,0,0,1.56,7.3c1.4,3.4,4.74,4.29,7.84,2.33a12.64,12.64,0,0,0,3.28-3.08,72.9,72.9,0,0,0,4.62-6.91c3.36-5.78,6.54-11.66,9.92-17.42a52.31,52.31,0,0,1,3.74-5l.79.29c.18,1.58.41,3.15.52,4.73.36,5.15.47,10.32,1.07,15.44a28.53,28.53,0,0,0,5.16,12.87c1.94,2.79,4.45,4.88,8,5.2a14.14,14.14,0,0,0,11.17-3.66,92.83,92.83,0,0,0,16.64-20.5A25.35,25.35,0,0,0,591,369a3.57,3.57,0,0,0-.83-3,2.7,2.7,0,0,0-3.8.1,26.13,26.13,0,0,0-3.22,3.67c-3.85,5.31-7.55,10.73-11.49,16a25.22,25.22,0,0,1-5.33,5.29c-3.2,2.28-6.35,1.4-8.28-2a13.46,13.46,0,0,1-1.71-4.17c-.82-4.83-1.5-9.68-2.07-14.54-.6-5.12-1-10.26-1.51-15.39-.5-5-5.58-5.88-8.34-3.12a39.36,39.36,0,0,0-4.74,4.84c-3.41,4.83-6.58,9.85-9.84,14.79q-2.58,3.9-5.14,7.81Zm10.08,175.83c-.19-.33-.3-.7-.46-1-2-3.93-5.14-5.68-9.51-5.57-4,.11-7.28,1.86-10.33,4.22l-3.83,3c-.13-2.83-.22-4.89-.33-7.36l-13.48,5c.26.39.31.55.38.56.49,0,1,.07,1.48.11,3.24.26,4.17.87,4.23,4.09.16,9.21.08,18.44.08,27.65a6.46,6.46,0,0,1-.11.75,4.09,4.09,0,0,1-3.53,3.88,28.74,28.74,0,0,0-3.29,1.15c6.77.81,18.5.56,20.8-.31-5.78-1.75-5.9-1.89-5.91-8.14,0-6.7.23-13.41-.1-20.09-.17-3.62,1.47-5.62,4.19-7.32,7.12-4.43,12.94-1.58,13.38,6.72.26,5,.15,10.1.17,15.16,0,2.39,0,4.8-.13,7.19-.24,3.75-.91,4.5-4.42,5.66a13.5,13.5,0,0,0-1.75.86l.16.4h20a2.85,2.85,0,0,0-1.87-1.2,4.88,4.88,0,0,1-4-4.46,20.36,20.36,0,0,1-.39-3q-.06-10.8,0-21.6a3.9,3.9,0,0,1,.63-2.45c2.78-3.07,5.95-5.49,10.46-5.15,3.37.25,5.38,1.84,6.21,5.08a12.16,12.16,0,0,1,.51,3c.05,7.7.15,15.41,0,23.11-.06,3.62-.93,4.38-4.52,5.52-.53.17-1,.43-1.94.83,4.47,1,18,.81,20.25-.14-.2-.15-.37-.37-.58-.43-5.27-1.66-5.49-1.93-5.51-7.39,0-6.31.11-12.63-.07-18.94a39.68,39.68,0,0,0-1.18-9c-1.19-4.44-4.32-6.63-8.84-7a15.56,15.56,0,0,0-11,3.39c-1.7,1.3-3.26,2.77-5.1,4.36C534.3,555.22,534.07,554.93,533.89,554.61ZM420.65,581.75c0-6.69-.06-13.39,0-20.08,0-1.29.26-3,1.09-3.77a19.43,19.43,0,0,1,5.9-4c5.25-2.08,9,.1,10.1,5.59a24.32,24.32,0,0,1,.34,4.52c0,5.55,0,11.11,0,16.67,0,1.52,0,3-.15,4.54-.19,2.35-1.21,4.06-3.71,4.63a9.89,9.89,0,0,0-2,1,46.91,46.91,0,0,0,9.58.62,97.28,97.28,0,0,0,10.2-.22c-.89-.67-1.13-1-1.42-1.06-3.16-.61-4.37-2.68-4.4-5.7,0-1.26-.12-2.53-.12-3.79,0-5.68.12-11.37-.08-17.05a33.43,33.43,0,0,0-1.34-8.92c-1.35-4.24-4.62-6.43-9.14-6.72a15.46,15.46,0,0,0-11.78,4.21l-3.3,3v-9.79c0-3.16,0-6.32,0-9.47-.05-3,.26-5.94-.29-9.19L407,530.88l.13.76c.57.07,1.13.12,1.7.21,3,.43,3.31.75,3.66,3.79a13,13,0,0,1,.11,1.52c0,15.41-.06,30.82,0,46.23,0,3.81-1.27,6.34-5.24,7-.13,0-.2.38-.41.83h19.38C420.79,588.31,420.67,588.16,420.65,581.75Zm-30.3,4.49c-14.89,6.61-30.07-1.39-33.34-17.3a45,45,0,0,1,.24-18.8,27,27,0,0,1,5.66-11.84,20.16,20.16,0,0,1,33.64,3.49c.94,1.77,1.58,3.7,2.36,5.56.44,1.06,1,1.76,2.6.94-.27-6.71-.55-13.57-.85-20.89-1.08.43-2,.5-2.29,1-1.73,2.36-3.91,2.35-6.42,1.62a60.66,60.66,0,0,0-7.71-1.9c-14.34-2.27-26.27,2.35-33.77,13.54a32.16,32.16,0,0,0-5.3,16.76c-.46,9.9,2.18,18.74,9.48,25.81,12.43,12,35,11.22,46.5-1.65.26-.28.52-.56.75-.85.94-1.19.2-1.79-.6-2.21C397.4,581.92,394.09,584.58,390.35,586.24Zm177.51-55.11,14.06-4.34v27.83c1.23-1.06,1.93-1.63,2.59-2.23,7.2-6.7,17.25-5.8,23.17,2.08,5.44,7.23,5.65,19.38.42,27.56-5.51,8.62-13.78,11.49-24,9.74a34.27,34.27,0,0,1-6.44-2.14c-2.65-1-3.72-2.91-3.67-5.89.15-10.85.06-21.71.05-32.56,0-4.55,0-9.09,0-13.64-.08-5-.37-5.21-5.28-5.68C568.59,531.84,568.42,531.58,567.86,531.13Zm14,40.9c0,3.66,0,7.32,0,11,0,2.13.73,3.69,2.75,4.49,6.95,2.75,14.89,2,17.92-7.49a26.21,26.21,0,0,0-1.43-19.53c-3-6.32-9.49-8.26-15.55-4.78a6.49,6.49,0,0,0-3.68,6.12C581.93,565.21,581.88,568.62,581.88,572Zm184,20c-.1-1.78-.19-3.27-.31-5.17a18.71,18.71,0,0,0-2.18,1.62c-5.19,5.43-16.12,5.15-21.82-1.17-5.35-5.94-6.52-12.93-5.26-20.49a24.33,24.33,0,0,1,6.8-13.26c6.11-6.21,13.8-7.19,21.29-2.72a5.36,5.36,0,0,0,1.13.28c.07-1.35.18-2.65.19-4,0-3.66.06-7.32,0-11s-.63-4.13-4.21-4.29c-.57,0-1.14-.08-1.71-.13l-.14-.76,14.09-4.15v3.37q-.19,24-.38,48.07c0,.76,0,1.52,0,2.28.12,4.83.56,5.3,5.33,5.78a5.22,5.22,0,0,1,1,.34C777.72,588.36,771.77,590.67,765.91,592Zm-.16-21.63h-.06c0-3.53.07-7.07,0-10.6a8.55,8.55,0,0,0-4.29-7.53c-5.16-3.13-11-1.6-14.31,3.84-4.41,7.19-3.87,19.48,1.16,26.26a11.61,11.61,0,0,0,12.11,4.33c3-.81,5.74-3.9,5.48-6.84C765.54,576.69,765.75,573.51,765.75,570.36Zm76.44-15.92V527.07c-6.31,1.25-11.46,3-13.15,4.49,5,.68,5.53,1.11,5.54,5.65,0,15.4,0,30.81,0,46.21,0,3.47-.94,6.26-5,6.84-.27,0-.5.4-.83.68,3.92.89,17,.77,19.82-.24a10.14,10.14,0,0,0-1.85-.73,4.49,4.49,0,0,1-4-4.71c0-.75-.2-1.5-.2-2.26,0-7.32,0-14.64,0-22a4.42,4.42,0,0,1,.76-2.81c2.86-3,6.14-5.25,10.61-4.85,2.52.23,4.36,1.41,5.07,3.85a21.09,21.09,0,0,1,1,5.55c.11,6.81,0,13.63.06,20.44.06,4-1.36,6.55-5.48,7.24-.12,0-.18.38-.27.59,4.28.87,16.82.65,19.52-.58-5.37-.58-5.89-4.12-5.81-8.05,0-1.14,0-2.27,0-3.41,0-5.43.08-10.86-.06-16.28a29.07,29.07,0,0,0-1-7.09c-1.41-4.94-4.94-7.42-10.06-7.62a15.11,15.11,0,0,0-10.78,3.85c-1,.9-2,1.86-3,2.8Zm56.3-6.42c11.09,0,19.42,7.66,20.46,19.14.63,6.81-.78,13-5.13,18.45a20.11,20.11,0,0,1-28.69,2.74c-9.19-7.77-10.9-22.56-3.7-32.22C885.57,550.58,891.12,547.88,898.49,548Zm12,26.31c0-7.41-1.4-13.23-4.69-18.5a10.18,10.18,0,0,0-9.85-5.18,9.44,9.44,0,0,0-8.59,7c-3.25,9.94-1.91,19.38,3.72,28.2a8,8,0,0,0,1.23,1.43c5.09,5.08,12.52,4,15.78-2.41A22.9,22.9,0,0,0,910.5,574.33ZM494.33,586a8.2,8.2,0,0,1-6.93,6.15c-4.65.72-6.67-2-7.58-6.19a35.15,35.15,0,0,1-5,3.38c-2.61,1.16-5.35,2.52-8.12,2.74-7.58.62-12.42-6.28-9.78-13.45a13.92,13.92,0,0,1,7.39-7.77c4-1.94,8.07-3.57,12.12-5.33,1-.45,2.07-.87,3.25-1.37,0-2.69.17-5.32,0-7.92a5.54,5.54,0,0,0-4.58-5.33c-3-.71-5.82-.33-8.09,1.86a4.76,4.76,0,0,0-1,2.74,22.14,22.14,0,0,0,.22,3c.05,3-1.64,4.76-4.25,4.58a4.41,4.41,0,0,1-3.95-5.07,8.73,8.73,0,0,1,1.16-3.16,13.09,13.09,0,0,1,6.85-5.73,22.14,22.14,0,0,1,12.69-.62q7.92,1.89,8.62,10.64c.28,3.51.17,7.06.19,10.6,0,3.79,0,7.58,0,11.37C487.56,586.91,488.59,587.69,494.33,586Zm-14.51-19c-4.36,1.29-8,2.74-11,5.27a14.14,14.14,0,0,0-3.57,4.29c-2.1,4.16,0,9.12,4.11,10.07a9.33,9.33,0,0,0,8.77-2.32,5.19,5.19,0,0,0,1.61-3.23C479.92,576.61,479.82,572.08,479.82,567.05ZM684.26,576c-2.3,10.65-10.84,16.87-20.81,16.2a15,15,0,0,1-11.06-5.76c-7.26-9-7-23.53.65-32.22,4.78-5.46,10.91-7.24,17.79-5.79A15,15,0,0,1,683,564.54c-3,.89-6.12.3-9.2.4-3.28.11-6.56,0-9.84,0h-9.31c-1.57,6.25,2.32,15.47,7.37,18.44a13.84,13.84,0,0,0,16.19-1.27,60.9,60.9,0,0,0,4.26-4.79A13.15,13.15,0,0,1,684.26,576Zm-11.19-14.54c.23-6.38-3-10.06-8.65-10.1s-9.75,4.31-9.68,10.1ZM985.28,565H956.14c.19,5.27.91,10,3.67,14.07a13.76,13.76,0,0,0,21.6,2.12c1.24-1.24,2.21-2.75,3.39-4.06a9.8,9.8,0,0,1,1.83-1.23c.14.71.34,1.1.25,1.4a21,21,0,0,1-21.29,14.88,15,15,0,0,1-11.31-6.06c-7.09-9.14-6.7-23.21.89-31.93,4.77-5.48,10.9-7.18,17.81-5.8C980.6,549.92,985.3,556.26,985.28,565Zm-9.92-3.57c-.08-6.67-3.46-10.29-9.2-10.09A9.28,9.28,0,0,0,957,561.44ZM1012.64,549c-2.74-.29-5.53-1-8.21-.74-4.86.52-8.47,3.17-10,8a10.78,10.78,0,0,0,3.44,12,39.43,39.43,0,0,0,5.55,3.93c2.14,1.33,4.44,2.4,6.59,3.71a15.63,15.63,0,0,1,3.57,2.76,6.34,6.34,0,0,1-3,10.56,10.65,10.65,0,0,1-12.17-4.65,48.66,48.66,0,0,1-2.37-5.53,17.67,17.67,0,0,0-1.42-2.2c-1,4.27-.84,12.32.08,14.83,2.39-1.26,2.39-1.26,4.9-.66,1.1.26,2.19.6,3.31.79a20.32,20.32,0,0,0,11.55-.81c8.42-3.49,10.29-13.25,3.55-19.35a46.15,46.15,0,0,0-7.22-4.79c-2.58-1.57-5.39-2.8-7.85-4.54-3.12-2.19-3.87-5.06-2.57-7.9s4.21-4.21,7.6-3.75c4.19.56,6.79,3.06,8.29,6.87.52,1.33,1,2.66,1.54,4l1-.15c.17-4,0-8.08-.13-11.69C1016.17,549.4,1014.41,549.17,1012.64,549Zm-67.11,3v-3l-9.37-.42V537c-2.67,2.34-4.55,5-6.68,7.41s-4.45,4.55-7.16,7.28l6,.63v4.14c0,7.45,0,14.9,0,22.35a34.72,34.72,0,0,0,.59,7.14c1,4.35,3.84,6.4,8.2,6.23S944.6,589.5,947,586a11.25,11.25,0,0,0,.72-2.76c-1.58,1.23-2.4,1.94-3.29,2.56-3.41,2.33-6.85,1-7.82-3a18.41,18.41,0,0,1-.37-4.13c0-5.68,0-11.37,0-17.05,0-3,0-6,0-9.66ZM636.26,590.52c-5.93-1.4-6.83-2.44-6.88-8.41,0-6.19,0-12.38,0-18.57a9.52,9.52,0,0,1,2.1-6.32c2.7-3.31,3.94-3.53,7.47-1.07,1.69,1.17,3.4,1.72,5.27.57a4.86,4.86,0,0,0-2.33-8.61,7.13,7.13,0,0,0-5.73,1.39c-1.65,1.36-3.11,3-4.67,4.41-.56.52-1.18,1-2.28,1.9v-7.47c-4.83.92-12.24,3.71-13.87,5.17,5,.17,5.94,1.15,6.23,6.33.07,1.14.07,2.28.07,3.41,0,3.67,0,7.33,0,11,0,3.16,0,6.32,0,9.48-.1,4.37-.78,5.16-4.93,6.36a16.71,16.71,0,0,0-2.38,1.3h23C636.6,590.8,636.46,590.57,636.26,590.52Zm514.87-266.79a6.9,6.9,0,0,0,9.58-5.53,12.43,12.43,0,0,0-2.63-8.86c-2-2.71-4.56-2.88-7.17-.68s-3.35,4.94-3.29,8.12C1147.52,319.73,1148.2,322.34,1151.13,323.73Zm-778.51,0a6.89,6.89,0,0,0,9.48-5.68,12.46,12.46,0,0,0-2.71-8.84c-1.92-2.56-4.4-2.77-6.9-.76-2.69,2.15-3.57,5.08-3.49,8.4C368.91,319.87,369.66,322.44,372.62,323.77ZM902.76,529.43a5.71,5.71,0,0,0-8.94.13c-2.89,3.81-5.72,7.66-8.55,11.52a19.47,19.47,0,0,0-1.18,2.22c3.88.68,5.32-2.43,7.54-4s4.4-3.67,6.72-5.64c3.36,2.86,6.52,5.53,9.66,8.23,1.27,1.09,2.51,2.16,4.85,1.15C909.35,538.28,906.1,533.82,902.76,529.43Zm-106,14.11a47.44,47.44,0,0,1-4.34,4.16c-.78.69-1.7,1.24-.41,2.77,4.54-2.33,8.16-5.62,9.74-10.63a13.8,13.8,0,0,0,.27-6.3,7.24,7.24,0,0,0-8.3-5.94,5.17,5.17,0,0,0-4.58,5.51c.11,2.5,1.9,4.27,4.68,4.48,1.35.1,2.72,0,4.44,0A6.37,6.37,0,0,1,796.74,543.54Z" transform="translate(-121.21 -230.64)"/></svg>